<svg width="36" height="36" viewBox="0 0 36 36" fill="none" xmlns="http://www.w3.org/2000/svg">
<path d="M33 9.99H26.99V8.99C26.99 4.03 22.95 0 18 0C13.05 0 9.01 4.03 9.01 8.99V10H3L0 36H19H36L33 9.99ZM12.01 8.99C12.01 5.68 14.7 3 18 3C21.3 3 23.99 5.68 23.99 8.99V10H19H12.01V8.99ZM3.59 33L5.67 12.99H9.02V15.99H12.02V12.99H19H23.99V15.99H26.99V12.99H30.34L32.41 33H3.59Z" fill="#DBB7BB"/>
<path d="M32.04 11.5H4V21.5H32.04V11.5Z" fill="#DBB7BB"/>
<path d="M21 18.8901H15V25.0001H21V18.8901Z" fill="#DBB7BB"/>
</svg>
