<svg width="41" height="40" viewBox="0 0 41 40" fill="none">
<path d="M18 32.0002H3.59L5.66 11.9902H31.71L33 17.0002H36L34 8.99023H3L0 35.0002H18V32.0002Z" fill="currentColor"/>
<path d="M29.5 19C24.2524 19 20 23.2524 20 28.5C20 33.7476 24.2524 38 29.5 38C34.7476 38 39 33.7476 39 28.5C39 23.2524 34.7476 19 29.5 19Z" fill="#DBB7BB"/>
<path d="M27.01 15.01H24.01V8.51C24.01 5.47 21.54 3 18.5 3C15.46 3 12.99 5.47 12.99 8.51V15H9.98999V8.51C9.98999 3.82 13.81 0 18.5 0C23.19 0 27.01 3.82 27.01 8.51V15.01Z" fill="currentColor"/>
<path d="M29.4955 32.11C31.4255 32.11 32.6155 30.75 32.6155 28.56V28.23C32.6155 26.01 31.3455 24.75 29.5055 24.75C27.6655 24.75 26.3855 26.06 26.3855 28.26V28.6C26.3855 30.79 27.5955 32.11 29.4955 32.11ZM29.5355 30.84C28.5355 30.84 28.0055 30.09 28.0055 28.59V28.25C28.0055 26.77 28.5155 26 29.5155 26C30.5055 26 31.0055 26.81 31.0055 28.25V28.57C31.0055 30.07 30.5455 30.84 29.5355 30.84Z" fill="currentColor"/>
</svg>
