<svg viewBox="0 0 118 43" fill="none" xmlns="http://www.w3.org/2000/svg">
<path d="M117.064 15.2652C117.336 17.7933 116.09 20.4415 113.428 23.0863C110.77 25.7267 106.758 28.3012 101.667 30.6585C91.4906 35.3708 77.1065 39.1669 60.931 40.9118C44.7554 42.6566 29.8927 42.0154 18.9451 39.5819C13.4687 38.3645 9.00023 36.7047 5.84019 34.6919C2.67492 32.6758 0.892961 30.3542 0.620253 27.8261C0.347545 25.2981 1.5934 22.6499 4.2559 20.0051C6.914 17.3647 10.9257 14.7902 16.0165 12.4329C26.1932 7.7206 40.5773 3.92452 56.7529 2.17964C72.9284 0.43476 87.7912 1.07595 98.7388 3.50953C104.215 4.7269 108.684 6.38666 111.844 8.39946C115.009 10.4156 116.791 12.7372 117.064 15.2652Z" stroke="#005951"/>
</svg>
