<svg viewBox="0 0 92 42" fill="none" xmlns="http://www.w3.org/2000/svg">
<path d="M91.0836 16.1238C91.3617 18.7016 90.4371 21.3255 88.4472 23.88C86.4552 26.4371 83.4147 28.8974 79.5301 31.118C71.7624 35.5586 60.7048 38.9922 48.2008 40.341C35.6967 41.6898 24.1613 40.6934 15.6252 38.0116C11.3564 36.6704 7.86118 34.9151 5.36972 32.8417C2.88081 30.7703 1.41785 28.4039 1.13978 25.8261C0.861714 23.2484 1.78637 20.6244 3.77627 18.07C5.76822 15.5128 8.8087 13.0526 12.6933 10.8319C20.4611 6.39136 31.5186 2.95774 44.0227 1.60891C56.5267 0.26008 68.0622 1.25656 76.5982 3.93837C80.867 5.27952 84.3623 7.03479 86.8537 9.10827C89.3426 11.1796 90.8056 13.546 91.0836 16.1238Z" stroke="#005951"/>
</svg>
