<svg width="60" height="60" viewBox="0 0 60 60">
    <path d="M30 4C22.9443 4 22.057 4.0325 19.2847 4.156C16.5125 4.286 14.6243 4.7215 12.97 5.365C11.2348 6.01766 9.6631 7.04144 8.36475 8.36475C7.04225 9.66376 6.0186 11.2353 5.365 12.97C4.7215 14.621 4.28275 16.5125 4.156 19.275C4.0325 22.0537 4 22.9378 4 30.0033C4 37.0623 4.0325 37.9463 4.156 40.7185C4.286 43.4875 4.7215 45.3757 5.365 47.03C6.03125 48.7395 6.9185 50.189 8.36475 51.6353C9.80775 53.0815 11.2573 53.972 12.9668 54.635C14.6243 55.2785 16.5093 55.7172 19.2783 55.844C22.0538 55.9675 22.9377 56 30 56C37.0623 56 37.943 55.9675 40.7185 55.844C43.4843 55.714 45.379 55.2785 47.0332 54.635C48.7673 53.982 50.3379 52.9583 51.6353 51.6353C53.0815 50.189 53.9688 48.7395 54.635 47.03C55.2752 45.3757 55.714 43.4875 55.844 40.7185C55.9675 37.9463 56 37.0623 56 30C56 22.9377 55.9675 22.0538 55.844 19.2783C55.714 16.5125 55.2752 14.621 54.635 12.97C53.9815 11.2352 52.9578 9.6637 51.6353 8.36475C50.3373 7.04095 48.7655 6.0171 47.03 5.365C45.3725 4.7215 43.481 4.28275 40.7152 4.156C37.9398 4.0325 37.059 4 29.9935 4H30.0033H30ZM27.6698 8.6865H30.0033C36.9453 8.6865 37.7675 8.70925 40.5072 8.836C43.0422 8.94975 44.4202 9.3755 45.3368 9.72975C46.549 10.201 47.4167 10.7665 48.3268 11.6765C49.2368 12.5865 49.799 13.451 50.2703 14.6665C50.6278 15.5798 51.0503 16.9578 51.164 19.4928C51.2907 22.2325 51.3167 23.0548 51.3167 29.9935C51.3167 36.9323 51.2907 37.7577 51.164 40.4975C51.0503 43.0325 50.6245 44.4072 50.2703 45.3237C49.8534 46.4527 49.1881 47.4734 48.3235 48.3105C47.4135 49.2205 46.549 49.7828 45.3335 50.254C44.4235 50.6115 43.0455 51.034 40.5072 51.151C37.7675 51.2745 36.9453 51.3037 30.0033 51.3037C23.0613 51.3037 22.2358 51.2745 19.496 51.151C16.961 51.034 15.5863 50.6115 14.6698 50.254C13.5404 49.8377 12.5187 49.1736 11.6797 48.3105C10.8144 47.4721 10.1481 46.4504 9.72975 45.3205C9.3755 44.4072 8.94975 43.0293 8.836 40.4943C8.7125 37.7545 8.6865 36.9323 8.6865 29.987C8.6865 23.045 8.7125 22.226 8.836 19.4862C8.953 16.9513 9.3755 15.5732 9.733 14.6567C10.2043 13.4445 10.7697 12.5767 11.6797 11.6667C12.5897 10.7568 13.4543 10.1945 14.6698 9.72325C15.5863 9.36575 16.961 8.94325 19.496 8.82625C21.8945 8.71575 22.824 8.68325 27.6698 8.68V8.6865ZM43.8807 13.0025C43.471 13.0025 43.0653 13.0832 42.6868 13.24C42.3082 13.3968 41.9643 13.6266 41.6746 13.9163C41.3849 14.206 41.155 14.55 40.9982 14.9285C40.8414 15.3071 40.7607 15.7128 40.7607 16.1225C40.7607 16.5322 40.8414 16.9379 40.9982 17.3165C41.155 17.695 41.3849 18.039 41.6746 18.3287C41.9643 18.6184 42.3082 18.8482 42.6868 19.005C43.0653 19.1618 43.471 19.2425 43.8807 19.2425C44.7082 19.2425 45.5018 18.9138 46.0869 18.3287C46.672 17.7436 47.0008 16.95 47.0008 16.1225C47.0008 15.295 46.672 14.5014 46.0869 13.9163C45.5018 13.3312 44.7082 13.0025 43.8807 13.0025ZM30.0033 16.649C28.2322 16.6214 26.4734 16.9463 24.8292 17.605C23.185 18.2636 21.6882 19.2427 20.426 20.4854C19.1638 21.728 18.1614 23.2093 17.4772 24.8431C16.793 26.4768 16.4407 28.2304 16.4407 30.0016C16.4407 31.7729 16.793 33.5264 17.4772 35.1602C18.1614 36.7939 19.1638 38.2752 20.426 39.5179C21.6882 40.7605 23.185 41.7397 24.8292 42.3983C26.4734 43.0569 28.2322 43.3819 30.0033 43.3543C33.5085 43.2996 36.8517 41.8687 39.3112 39.3706C41.7707 36.8724 43.1492 33.5073 43.1492 30.0016C43.1492 26.4959 41.7707 23.1308 39.3112 20.6327C36.8517 18.1345 33.5085 16.7037 30.0033 16.649ZM30.0033 21.3323C32.3021 21.3323 34.5068 22.2455 36.1323 23.871C37.7578 25.4965 38.671 27.7012 38.671 30C38.671 32.2988 37.7578 34.5035 36.1323 36.129C34.5068 37.7545 32.3021 38.6677 30.0033 38.6677C27.7044 38.6677 25.4997 37.7545 23.8742 36.129C22.2487 34.5035 21.3355 32.2988 21.3355 30C21.3355 27.7012 22.2487 25.4965 23.8742 23.871C25.4997 22.2455 27.7044 21.3323 30.0033 21.3323Z" fill="currentColor"/>
</svg>
