<svg width="60" height="70" viewBox="0 0 60 70" fill="none" xmlns="http://www.w3.org/2000/svg">
<circle cx="30" cy="35" r="30" fill="#DBB7BB"/>
<path d="M16.7369 36.8418L16.8863 36.1123H12.0084L11.8589 36.8418H16.7369ZM24.7652 28.7822H24.1851L20.6519 30.1797L20.5728 30.5312L22.2779 30.1533C22.3657 30.127 22.4009 30.1621 22.3833 30.2412L20.3355 39.8828C20.1333 40.8232 19.7466 40.999 18.3667 41.1572L18.2964 41.5H23.772L23.8423 41.1572C22.5415 41.0078 22.2075 40.8232 22.4097 39.8828L24.7652 28.7822ZM29.4448 41.6934C32.1343 41.6934 34.3755 39.8652 34.3755 37.3164C34.3755 35.2158 33.0307 33.748 30.8774 33.7393C29.4975 33.7393 28.4604 34.3281 27.7925 35.1367L29.4712 30.6016H34.8589L35.1841 28.8086H29.4712L27.1069 35.9102H27.4409C27.9243 35.2246 28.6714 34.7324 29.6645 34.7324C31.2466 34.7324 32.1694 35.8926 32.187 37.6768C32.2046 39.7598 30.8071 41.1309 29.1108 41.1309C28.3813 41.1309 27.6694 40.8672 27.2124 40.4014C27.2212 40.4014 27.23 40.4014 27.2475 40.4014C27.8276 40.4014 28.2319 39.9619 28.2319 39.417C28.2319 38.8896 27.8013 38.4238 27.2212 38.4238C26.6938 38.4238 26.2456 38.8721 26.2456 39.4434C26.2456 40.6211 27.5376 41.6934 29.4448 41.6934ZM39.5385 35.3652C41.6303 35.3652 42.6235 33.2119 42.6411 31.5156C42.6586 30.0918 41.9555 28.7031 40.435 28.7031C38.3784 28.7031 37.3588 30.7686 37.3413 32.5352C37.3237 33.9941 38.0444 35.3652 39.5385 35.3652ZM37.6752 41.5H38.2729L49.0746 28.8086H48.477L37.6752 41.5ZM39.5473 35.0137C39.0463 35.0137 38.7651 34.5391 38.7651 33.3438C38.7739 31.1992 39.4682 29.0459 40.435 29.0459C40.936 29.0459 41.226 29.5645 41.2172 30.751C41.1996 32.9482 40.5053 35.0137 39.5473 35.0137ZM46.2885 41.6055C48.3803 41.6055 49.3735 39.4609 49.3911 37.7646C49.3998 36.3408 48.6967 34.9434 47.1762 34.9434C45.1196 34.9434 44.1088 37.0176 44.0913 38.7842C44.0737 40.2432 44.7944 41.6055 46.2885 41.6055ZM46.2885 41.2627C45.7875 41.2627 45.5063 40.7793 45.5063 39.584C45.5151 37.4482 46.2094 35.2949 47.1762 35.2949C47.6772 35.2949 47.9672 35.8047 47.9584 36.9912C47.9496 39.1973 47.2553 41.2627 46.2885 41.2627Z" fill="#005951"/>
</svg>
