<svg width="36" height="36" viewBox="0 0 36 36" fill="none">
<path d="M21.9378 6.8112L19.108 9.79265L18.0202 10.9387L16.9322 9.7928L14.0622 6.76991C14.0618 6.76959 14.0615 6.76926 14.0612 6.76894C12.6551 5.29286 10.8132 4.5 8.86492 4.5C6.91685 4.5 5.07514 5.29268 3.66907 6.76846C0.775746 9.82443 0.778245 14.8104 3.66896 17.8534L3.68525 17.8705L3.701 17.8882L17.6216 33.5H18.4183L32.2989 17.9296L32.314 17.9127L32.3296 17.8962C35.2238 14.8408 35.2222 9.85479 32.3323 6.8112H21.9378ZM21.9378 6.8112C21.9382 6.8108 21.9386 6.81041 21.939 6.81001M21.9378 6.8112L21.939 6.81001M21.939 6.81001C23.3451 5.33407 25.1869 4.54129 27.1351 4.54129C29.0832 4.54129 30.925 5.33402 32.331 6.80987L21.939 6.81001Z" stroke="currentColor" stroke-width="3"/>
</svg>
