<svg width="100%" height="100%" viewBox="0 0 32 32" fill="none" xmlns="http://www.w3.org/2000/svg">
<path d="M3.41417 15.7895L3.39843 15.7718L3.38213 15.7547C0.873854 13.1143 0.871354 8.78327 3.38225 6.13102C4.60154 4.85138 6.19534 4.1665 7.87993 4.1665C9.56481 4.1665 11.1588 4.8516 12.3782 6.13165C12.3785 6.13193 12.3787 6.1322 12.379 6.13247L14.93 8.81931L16.0179 9.96521L17.1057 8.81915L19.621 6.16917C19.6214 6.1688 19.6217 6.16843 19.6221 6.16806C20.8414 4.8882 22.4353 4.20321 24.1201 4.20321C25.8049 4.20321 27.3989 4.88827 28.6183 6.16826C31.1266 8.80918 31.1285 13.141 28.6164 15.7929L28.6008 15.8094L28.5857 15.8263L16.2971 29.6109H15.7383L3.41417 15.7895Z" stroke="currentColor" stroke-width="3"/>
</svg>
