<svg viewBox="0 0 174 42" fill="none" xmlns="http://www.w3.org/2000/svg">
<path d="M0 20.0687C0 10.7933 3.59067 4.33355 7.1403 0.0871863H12.2282C9.02067 4.63672 6.02811 11.0528 6.02811 20.0687C6.02811 29.0845 9.02067 35.4551 12.2282 40.0502H7.1403C3.59067 35.8018 0 29.3441 0 20.0687Z" fill="#1D1D1B"/>
<path d="M12.8107 22.5812V22.2345C12.8107 15.0832 17.8126 10.4445 24.3118 10.4445C30.0839 10.4445 35.2148 13.8686 35.2148 21.9749V23.7087H19.0949C19.2649 27.4795 21.2763 29.6473 24.6539 29.6473C27.5194 29.6473 28.9287 28.391 29.3137 26.4828H35.1718C34.4447 31.3811 30.596 34.1116 24.4838 34.1116C17.7266 34.1116 12.8107 29.8197 12.8107 22.5812ZM29.1867 19.8507C28.9736 16.4267 27.2633 14.7801 24.3118 14.7801C21.5323 14.7801 19.652 16.6446 19.1809 19.8507H29.1867Z" fill="#1D1D1B"/>
<path d="M43.8504 22.0621L36.7101 10.9657H43.8074L47.9982 17.7701L52.1029 10.9657H58.5161L51.3758 21.5845L59.2432 33.6341H52.1029L47.4 26.0053L42.5682 33.6341H36.198L43.8504 22.0621Z" fill="#1D1D1B"/>
<path d="M66.8096 19.9815C66.8096 10.9657 63.8171 4.59511 60.6525 0H65.7404C69.247 4.24835 72.8377 10.6625 72.8377 19.9815C72.8377 29.2569 69.247 35.7147 65.7404 39.963H60.6525C63.8171 35.4115 66.8096 28.9974 66.8096 19.9815Z" fill="#1D1D1B"/>
<path d="M83.6117 30.0376V33.6341H77.4116V0.693527H83.6117V14.5205C84.851 12.3527 87.4604 10.4465 90.752 10.4465C96.225 10.4465 100.5 14.5641 100.5 22.0621V22.4088C100.5 29.9069 96.3091 34.1116 90.752 34.1116C87.2884 34.1116 84.7649 32.3778 83.6117 30.0376ZM94.2156 22.4524V22.1057C94.2156 17.5106 91.9932 15.2576 88.8716 15.2576C85.623 15.2576 83.3987 17.5542 83.3987 22.1057V22.4524C83.3987 27.004 85.537 29.2133 88.9146 29.2133C92.3333 29.2133 94.2156 26.8732 94.2156 22.4524Z" fill="#1D1D1B"/>
<path d="M103.193 27.3507C103.193 22.0621 107.982 20.0687 114.823 20.0687H117.347V19.1592C117.347 16.4723 116.534 14.998 113.713 14.998C111.276 14.998 110.164 16.2543 109.907 18.2061H104.049C104.434 12.8322 108.625 10.4485 114.096 10.4485C119.569 10.4485 123.459 12.7034 123.459 18.858V33.638H117.431V30.9075C116.149 32.7285 114.182 34.1156 110.676 34.1156C106.614 34.1116 103.193 32.1182 103.193 27.3507ZM117.345 25.7021V23.7959H114.95C111.36 23.7959 109.264 24.5766 109.264 27.004C109.264 28.6506 110.248 29.7345 112.513 29.7345C115.25 29.7345 117.345 28.2166 117.345 25.7021Z" fill="#1D1D1B"/>
<path d="M127.564 34.1116H133.721C134.106 36.105 135.517 37.4069 138.68 37.4069C142.442 37.4069 144.323 35.4135 144.323 31.8587V28.4346C143.084 30.646 140.431 32.6394 137.14 32.6394C131.71 32.6394 127.392 28.5218 127.392 21.8045V21.5013C127.392 15 131.667 10.4485 137.226 10.4485C140.859 10.4485 143.041 12.0535 144.323 14.3501V10.9657H150.48V31.8567C150.437 38.574 146.033 42 138.68 42C131.453 42 128.162 38.7919 127.564 34.1116ZM144.495 21.7153V21.4122C144.495 17.5542 142.485 15.214 139.108 15.214C135.644 15.214 133.721 17.7285 133.721 21.4557V21.8025C133.721 25.5733 135.902 27.9135 138.979 27.9135C142.227 27.9135 144.495 25.5733 144.495 21.7153Z" fill="#1D1D1B"/>
<path d="M154.327 26.5264H160.099C160.355 28.5634 161.338 29.7345 164.031 29.7345C166.426 29.7345 167.538 28.823 167.538 27.2635C167.538 25.7021 166.213 25.0522 163.005 24.5766C157.063 23.6671 154.753 21.9333 154.753 17.5125C154.753 12.7886 159.03 10.4465 163.603 10.4465C168.562 10.4465 172.282 12.2675 172.839 17.469H167.153C166.811 15.6063 165.785 14.7384 163.646 14.7384C161.637 14.7384 160.482 15.6915 160.482 17.0786C160.482 18.5092 161.551 19.072 164.8 19.5495C170.402 20.3738 173.478 21.8045 173.478 26.6572C173.478 31.5555 169.972 34.1116 164.073 34.1116C158.046 34.1116 154.54 31.4247 154.327 26.5264Z" fill="#1D1D1B"/>
</svg>
