<svg width="36" height="36" viewBox="0 0 36 36" fill="none" xmlns="http://www.w3.org/2000/svg">
<path d="M4 5C8.75472 9.48148 12.9811 8.98354 32 8.98354" stroke="#1D1D1B" stroke-width="2"/>
<path d="M11 9V2H25V9" stroke="#1D1D1B" stroke-width="3"/>
<path fill-rule="evenodd" clip-rule="evenodd" d="M9 7.5647C8.67327 8.53129 8.5 9.55287 8.5 10.5902C8.5 13.0002 9.42 15.2902 11.01 17.0202C6 19.2502 3 23.9202 3 29.7502V35.0003H6V29.7502C6 24.3302 9.14 20.3102 14.42 19.0102L15.4 18.7402V16.5802L14.79 16.2302C12.76 15.0702 11.5 12.9102 11.5 10.5902C11.5 9.68012 11.6836 8.80291 12.0305 8.0002H9V7.5647ZM24.0031 8.0002C24.0531 8.12505 24.0988 8.25178 24.14 8.3802C25.31 11.9802 23.52 14.9102 21.2 16.2402L20.63 16.5902V18.7802L21.61 19.0202C26.86 20.3102 30 24.3202 30 29.7502V35.0003H33V29.7502C33 23.9202 29.99 19.2502 25 17.0102C27.3 14.5102 28.12 10.9102 27 7.4502V8.0002H24.0031Z" fill="#1D1D1B"/>
</svg>
