<svg viewBox="0 0 36 22" fill="none">
<path fill-rule="evenodd" clip-rule="evenodd" d="M25.0623 21.2232L25.5985 21.2095L26.1255 21.1732L26.6479 21.105L27.1611 21.0142L27.665 20.9006L28.1596 20.7643L28.645 20.6008L29.1165 20.4191L29.5788 20.2147L30.0319 19.9875L30.4664 19.7422L30.8917 19.4742L31.2985 19.188L31.6915 18.8837L32.0705 18.5657L32.4311 18.225L32.7778 17.8661L33.1061 17.4936L33.4112 17.112L33.7024 16.7077L33.9752 16.2943L34.2248 15.8627L34.4559 15.4221L34.664 14.9678L34.8535 14.5045L35.0153 14.0275L35.1586 13.5414L35.2742 13.0463L35.362 12.542L35.4314 12.0287L35.4684 11.5108L35.4822 10.9839L35.4684 10.4569L35.4314 9.93903L35.362 9.43025L35.2742 8.93055L35.1586 8.43539L35.0153 7.95387L34.8535 7.47688L34.664 7.01806L34.4559 6.56379L34.2248 6.12315L33.9752 5.70068L33.7024 5.28275L33.4112 4.88299L33.1061 4.5014L32.7778 4.12889L32.4311 3.77002L32.0705 3.43386L31.6915 3.11133L31.2985 2.81151L30.8917 2.52531L30.4664 2.25729L30.0319 2.01199L29.5788 1.78939L29.1165 1.58043L28.645 1.39872L28.1596 1.23518L27.665 1.0989L27.1611 0.985332L26.6479 0.894478L26.1255 0.830879L25.5985 0.789995L25.0623 0.776367L24.526 0.789995L23.999 0.830879L23.4766 0.894478L22.9681 0.985332L22.4642 1.0989L21.9696 1.23518L21.4888 1.39872L21.0126 1.58043L20.555 1.78939L20.1112 2.01199L19.6766 2.25729L19.2513 2.52531L18.8445 2.81151L18.4516 3.11133L18.0771 3.43386L17.7165 3.77002L17.3745 4.12889L17.0462 4.5014L16.7365 4.88299L16.4499 5.28275L16.1818 5.70068L15.9321 6.12315L15.701 6.56379L15.4929 7.01806L15.3034 7.47688L15.1462 7.95387L15.0029 8.43539L14.8873 8.93055L14.7949 9.43025L14.7302 9.93903L14.6932 10.4569L14.6793 10.9839L14.6932 11.5108L14.7302 12.0287L14.7949 12.542L14.8873 13.0463L15.0029 13.5414L15.1462 14.0275L15.3034 14.5045L15.4929 14.9678L15.701 15.4221L15.9321 15.8627L16.1818 16.2943L16.4499 16.7077L16.7365 17.112L17.0462 17.4936L17.3745 17.8661L17.7165 18.225L18.0771 18.5657L18.4516 18.8837L18.8445 19.188L19.2513 19.4742L19.6766 19.7422L20.1112 19.9875L20.555 20.2147L21.0126 20.4191L21.4888 20.6008L21.9696 20.7643L22.4642 20.9006L22.9681 21.0142L23.4766 21.105L23.999 21.1732L24.526 21.2095L25.0623 21.2232Z" fill="#FBB231"/>
<path fill-rule="evenodd" clip-rule="evenodd" d="M11.1428 21.2232L11.679 21.2095L12.206 21.1732L12.7284 21.105L13.2369 21.0142L13.7408 20.9006L14.2355 20.7643L14.7163 20.6008L15.1878 20.4191L15.6501 20.2147L16.0939 19.9875L16.5284 19.7422L16.9491 19.4742L17.3605 19.188L17.7535 18.8837L18.1279 18.5657L18.4885 18.225L18.8306 17.8661L19.1588 17.4936L19.4686 17.112L19.7552 16.7077L20.0279 16.2943L20.2729 15.8627L20.5041 15.4221L20.7121 14.9678L20.897 14.5045L21.0588 14.0275L21.2021 13.5414L21.3177 13.0463L21.4055 12.542L21.4749 12.0287L21.5119 11.5108L21.5257 10.9839L21.5119 10.4569L21.4749 9.93903L21.4055 9.43025L21.3177 8.93055L21.2021 8.43539L21.0588 7.95387L20.897 7.47688L20.7121 7.01806L20.5041 6.56379L20.2729 6.12315L20.0279 5.70068L19.7552 5.28275L19.4686 4.88299L19.1588 4.5014L18.8306 4.12889L18.4885 3.77002L18.1279 3.43386L17.7535 3.11133L17.3605 2.81151L16.9491 2.52531L16.5284 2.25729L16.0939 2.01199L15.6501 1.78939L15.1878 1.58043L14.7163 1.39872L14.2355 1.23518L13.7408 1.0989L13.2369 0.985332L12.7284 0.894478L12.206 0.830879L11.679 0.789995L11.1428 0.776367L10.6065 0.789995L10.0749 0.830879L9.55714 0.894478L9.03937 0.985332L8.54011 1.0989L8.04546 1.23518L7.56006 1.39872L7.08853 1.58043L6.62624 1.78939L6.1732 2.01199L5.73865 2.25729L5.31334 2.52531L4.90654 2.81151L4.51359 3.11133L4.13451 3.43386L3.77393 3.77002L3.42721 4.12889L3.09899 4.5014L2.79388 4.88299L2.50264 5.28275L2.22989 5.70068L1.97563 6.12315L1.74912 6.56379L1.54109 7.01806L1.35155 7.47688L1.18975 7.95387L1.04644 8.43539L0.930867 8.93055L0.843031 9.43025L0.773691 9.93903L0.736707 10.4569L0.722839 10.9839L0.736707 11.5108L0.773691 12.0287L0.843031 12.542L0.930867 13.0463L1.04644 13.5414L1.18975 14.0275L1.35155 14.5045L1.54109 14.9678L1.74912 15.4221L1.97563 15.8627L2.22989 16.2943L2.50264 16.7077L2.79388 17.112L3.09899 17.4936L3.42721 17.8661L3.77393 18.225L4.13451 18.5657L4.51359 18.8837L4.90654 19.188L5.31334 19.4742L5.73865 19.7422L6.1732 19.9875L6.62624 20.2147L7.08853 20.4191L7.56006 20.6008L8.04546 20.7643L8.54011 20.9006L9.03937 21.0142L9.55714 21.105L10.0749 21.1732L10.6065 21.2095L11.1428 21.2232Z" fill="#EC1C2E"/>
<path fill-rule="evenodd" clip-rule="evenodd" d="M16.8848 4.70133H22.4137V4.14258H17.3609L16.8848 4.70133Z" fill="#FBB231"/>
<path fill-rule="evenodd" clip-rule="evenodd" d="M16.0568 5.93214H22.4132V5.37793H16.3896L16.0568 5.93214Z" fill="#FBB231"/>
<path fill-rule="evenodd" clip-rule="evenodd" d="M15.4373 7.1631H22.4132V6.60889H15.6869L15.4373 7.1631Z" fill="#FBB231"/>
<path fill-rule="evenodd" clip-rule="evenodd" d="M15.0123 8.39894H22.4135V7.84473H15.1879L15.0123 8.39894Z" fill="#FBB231"/>
<path fill-rule="evenodd" clip-rule="evenodd" d="M15.2619 14.3633H22.4274V13.8091H15.0862L15.2619 14.3633Z" fill="#FBB231"/>
<path fill-rule="evenodd" clip-rule="evenodd" d="M15.7882 15.5991H22.4267V15.0449H15.5247L15.7882 15.5991Z" fill="#FBB231"/>
<path fill-rule="evenodd" clip-rule="evenodd" d="M16.5329 16.8301H22.427V16.2759H16.1815L16.5329 16.8301Z" fill="#FBB231"/>
<path fill-rule="evenodd" clip-rule="evenodd" d="M17.5593 18.0656H22.4272V17.5068H17.0647L17.5593 18.0656Z" fill="#FBB231"/>
<path fill-rule="evenodd" clip-rule="evenodd" d="M14.7671 9.6299H22.4133V9.07568H14.8734L14.7671 9.6299Z" fill="#FBB231"/>
<path fill-rule="evenodd" clip-rule="evenodd" d="M19.4272 13.1323H22.3396V12.5781H19.5289L19.4272 13.1323Z" fill="#FBB231"/>
<path fill-rule="evenodd" clip-rule="evenodd" d="M19.6582 11.9015H22.3395V11.3428H19.7645L19.6582 11.9015Z" fill="#FBB231"/>
<path fill-rule="evenodd" clip-rule="evenodd" d="M14.5731 11.3428H15.3312V11.9015H14.61L14.5731 11.3428Z" fill="#FBB231"/>
<path fill-rule="evenodd" clip-rule="evenodd" d="M13.1586 10.6704L13.1078 10.6659L13.0615 10.6613L13.0153 10.6568L12.9691 10.6477L12.9275 10.6386L12.8812 10.6341L12.835 10.625L12.7842 10.6204L12.7379 10.6113H12.6825L12.6177 10.6068L12.553 10.6023H12.479L12.3958 10.6068L12.3034 10.6113L12.2017 10.6204L12.1323 10.6295L12.0676 10.6386L12.0075 10.6613L11.9567 10.6795L11.9058 10.7067L11.8596 10.734L11.8226 10.7703L11.7949 10.7976L11.7718 10.8385L11.7533 10.8748L11.7486 10.9157V10.9566L11.7579 11.002L11.7718 11.0474L11.7995 11.0929L11.8365 11.1383L11.9058 11.2019L11.989 11.2564L12.0861 11.2973L12.1924 11.3382L12.3034 11.37L12.419 11.4109L12.5391 11.4517L12.6501 11.4972L12.7564 11.5562L12.8535 11.6244L12.9413 11.7152L13.0153 11.8197L13.0708 11.9514L13.1078 12.1059L13.1216 12.2921L13.1078 12.5102L13.08 12.6737L13.0384 12.8146L12.9829 12.9463L12.9136 13.0599L12.8304 13.1598L12.7426 13.2461L12.6409 13.3188L12.5345 13.3869L12.419 13.4369L12.3034 13.4823L12.1878 13.5141L12.063 13.5459L11.9428 13.5641L11.8272 13.5732L11.7117 13.5823L11.6053 13.5868H11.4528L11.3141 13.5823H11.1893L11.0737 13.5777L10.9674 13.5732L10.8749 13.5686L10.7917 13.5596L10.7085 13.5505L10.6345 13.5459L10.5698 13.5323L10.5005 13.5187L10.4404 13.505L10.3803 13.4869L10.3248 13.4687L10.2693 13.446L10.2092 13.4278L10.3664 12.6646L10.3988 12.6737L10.4404 12.6828L10.4866 12.6964L10.5467 12.7101L10.6114 12.7237L10.6808 12.7373L10.7593 12.7555L10.8426 12.7691L10.9304 12.7828L11.0229 12.7964L11.1153 12.8055L11.2124 12.8146L11.3141 12.8191L11.4204 12.8236H11.5175L11.6192 12.8191L11.7209 12.8009L11.8041 12.7691L11.8688 12.7328L11.9151 12.6874L11.952 12.6374L11.9798 12.5829L11.9983 12.5284L12.0121 12.4739L12.0168 12.3739L11.9844 12.2876L11.9243 12.2195L11.8411 12.1604L11.7348 12.1104L11.61 12.0559L11.4759 12.0105L11.3372 11.956L11.1985 11.8924L11.0645 11.8197L10.9396 11.7288L10.8287 11.6244L10.7409 11.4926L10.6761 11.3382L10.6438 11.1519L10.6484 10.9293L10.6669 10.7976L10.69 10.6659L10.727 10.5523L10.7686 10.4387L10.8241 10.3388L10.8888 10.2479L10.9628 10.1616L11.0506 10.0844L11.1523 10.0208L11.2632 9.96627L11.3881 9.91176L11.5314 9.87542L11.6885 9.84362L11.8596 9.8209L12.0491 9.80728L12.2572 9.80273H12.3866L12.5068 9.80728L12.6131 9.81182H12.7148L12.8026 9.8209L12.8812 9.82545L12.9506 9.83453L13.0153 9.83908L13.0754 9.84816L13.1216 9.85725L13.1679 9.86633L13.2095 9.87087L13.2464 9.87996H13.2788L13.3112 9.88905L13.3389 9.89359L13.1586 10.6704Z" fill="white"/>
<path d="M13.1586 10.6704L13.1078 10.6659L13.0615 10.6613L13.0153 10.6568L12.9691 10.6477L12.9275 10.6386L12.8812 10.6341L12.835 10.625L12.7842 10.6204L12.7379 10.6113H12.6825L12.6177 10.6068L12.553 10.6023H12.479L12.3958 10.6068L12.3034 10.6113L12.2017 10.6204L12.1323 10.6295L12.0676 10.6386L12.0075 10.6613L11.9567 10.6795L11.9058 10.7067L11.8596 10.734L11.8226 10.7703L11.7949 10.7976L11.7718 10.8385L11.7533 10.8748L11.7486 10.9157V10.9566L11.7579 11.002L11.7718 11.0474L11.7995 11.0929L11.8365 11.1383L11.9058 11.2019L11.989 11.2564L12.0861 11.2973L12.1924 11.3382L12.3034 11.37L12.419 11.4109L12.5391 11.4517L12.6501 11.4972L12.7564 11.5562L12.8535 11.6244L12.9413 11.7152L13.0153 11.8197L13.0708 11.9514L13.1078 12.1059L13.1216 12.2921L13.1078 12.5102L13.08 12.6737L13.0384 12.8146L12.9829 12.9463L12.9136 13.0599L12.8304 13.1598L12.7426 13.2461L12.6409 13.3188L12.5345 13.3869L12.419 13.4369L12.3034 13.4823L12.1878 13.5141L12.063 13.5459L11.9428 13.5641L11.8272 13.5732L11.7117 13.5823L11.6053 13.5868H11.4528L11.3141 13.5823H11.1893L11.0737 13.5777L10.9674 13.5732L10.8749 13.5686L10.7917 13.5596L10.7085 13.5505L10.6345 13.5459L10.5698 13.5323L10.5005 13.5187L10.4404 13.505L10.3803 13.4869L10.3248 13.4687L10.2693 13.446L10.2092 13.4278L10.3664 12.6646L10.3988 12.6737L10.4404 12.6828L10.4866 12.6964L10.5467 12.7101L10.6114 12.7237L10.6808 12.7373L10.7593 12.7555L10.8426 12.7691L10.9304 12.7828L11.0229 12.7964L11.1153 12.8055L11.2124 12.8146L11.3141 12.8191L11.4204 12.8236H11.5175L11.6192 12.8191L11.7209 12.8009L11.8041 12.7691L11.8688 12.7328L11.9151 12.6874L11.952 12.6374L11.9798 12.5829L11.9983 12.5284L12.0121 12.4739L12.0168 12.3739L11.9844 12.2876L11.9243 12.2195L11.8411 12.1604L11.7348 12.1104L11.61 12.0559L11.4759 12.0105L11.3372 11.956L11.1985 11.8924L11.0645 11.8197L10.9396 11.7288L10.8287 11.6244L10.7409 11.4926L10.6761 11.3382L10.6438 11.1519L10.6484 10.9293L10.6669 10.7976L10.69 10.6659L10.727 10.5523L10.7686 10.4387L10.8241 10.3388L10.8888 10.2479L10.9628 10.1616L11.0506 10.0844L11.1523 10.0208L11.2632 9.96627L11.3881 9.91176L11.5314 9.87542L11.6885 9.84362L11.8596 9.8209L12.0491 9.80728L12.2572 9.80273H12.3866L12.5068 9.80728L12.6131 9.81182H12.7148L12.8026 9.8209L12.8812 9.82545L12.9506 9.83453L13.0153 9.83908L13.0754 9.84816L13.1216 9.85725L13.1679 9.86633L13.2095 9.87087L13.2464 9.87996H13.2788L13.3112 9.88905L13.3389 9.89359L13.1586 10.6704Z" stroke="white" stroke-width="0.216" stroke-miterlimit="2.6131"/>
<path fill-rule="evenodd" clip-rule="evenodd" d="M13.9905 9.03955H14.9614L14.818 9.87541H15.4051L15.2757 10.6568L14.6609 10.6386L14.3234 12.5602L14.3188 12.6283L14.3373 12.6874L14.3742 12.7328L14.4159 12.7691L14.4806 12.7964L14.5499 12.8145L14.6285 12.8282L14.7117 12.8373L14.7903 12.8327L14.8597 12.8282L14.9244 12.8145L14.9798 12.8009L15.0261 12.7873L15.0584 12.7782L15.0769 12.7691H15.0862L14.9614 13.4096L14.9382 13.4278L14.9105 13.4414L14.8874 13.4551L14.8643 13.4687L14.8412 13.4778L14.8088 13.4869L14.7811 13.5005L14.7487 13.5096L14.7117 13.5187L14.6794 13.5278L14.6377 13.5323L14.5915 13.5414L14.5499 13.5459L14.4944 13.555L14.439 13.5596L14.3789 13.5686H14.1107L13.9721 13.5596L13.8472 13.5459L13.7363 13.5232L13.6438 13.5005L13.5606 13.4687L13.4959 13.4324L13.4358 13.3915L13.3896 13.346L13.3526 13.3006L13.3295 13.2416L13.311 13.1825L13.3017 13.1144L13.2971 13.0417V12.969L13.311 12.8872L13.3202 12.8009L13.9905 9.03955Z" fill="white"/>
<path d="M13.9905 9.03955H14.9614L14.818 9.87541H15.4051L15.2757 10.6568L14.6609 10.6386L14.3234 12.5602L14.3188 12.6283L14.3373 12.6874L14.3742 12.7328L14.4159 12.7691L14.4806 12.7964L14.5499 12.8145L14.6285 12.8282L14.7117 12.8373L14.7903 12.8327L14.8597 12.8282L14.9244 12.8145L14.9798 12.8009L15.0261 12.7873L15.0584 12.7782L15.0769 12.7691H15.0862L14.9614 13.4096L14.9382 13.4278L14.9105 13.4414L14.8874 13.4551L14.8643 13.4687L14.8412 13.4778L14.8088 13.4869L14.7811 13.5005L14.7487 13.5096L14.7117 13.5187L14.6794 13.5278L14.6377 13.5323L14.5915 13.5414L14.5499 13.5459L14.4944 13.555L14.439 13.5596L14.3789 13.5686H14.1107L13.9721 13.5596L13.8472 13.5459L13.7363 13.5232L13.6438 13.5005L13.5606 13.4687L13.4959 13.4324L13.4358 13.3915L13.3896 13.346L13.3526 13.3006L13.3295 13.2416L13.311 13.1825L13.3017 13.1144L13.2971 13.0417V12.969L13.311 12.8872L13.3202 12.8009L13.9905 9.03955Z" stroke="white" stroke-width="0.216" stroke-miterlimit="2.6131"/>
<path d="M16.1818 11.956L16.1679 12.0105V12.0741L16.1725 12.1422L16.1864 12.2058L16.2095 12.2694L16.2419 12.333L16.2789 12.4012L16.3205 12.4557L16.3667 12.5147L16.4222 12.5693L16.4777 12.6192L16.5424 12.6601L16.6025 12.701L16.6764 12.7282L16.7458 12.7555L16.8151 12.7691L16.9076 12.7828L16.9954 12.7918L17.0833 12.8009L17.1757 12.81L17.2682 12.8146H17.3606L17.4531 12.81L17.5502 12.8009L17.6426 12.7873L17.7397 12.7691L17.8368 12.751L17.9292 12.7192L18.0309 12.6828L18.1326 12.6419L18.2297 12.5874L18.3314 12.5284L18.1881 13.3733L18.1326 13.4006L18.0772 13.4324L18.0217 13.4505L17.9708 13.4733L17.9154 13.4869L17.8599 13.5051L17.8044 13.5187L17.7443 13.5323L17.6796 13.5414L17.6103 13.5459L17.5363 13.555L17.4577 13.5596L17.3652 13.5641H17.2728L17.1618 13.5686H17.0463L16.8752 13.5641L16.6996 13.5459L16.5239 13.5232L16.3482 13.4823L16.1772 13.4324L16.0107 13.3642L15.8536 13.2779L15.7056 13.178L15.567 13.0599L15.4514 12.919L15.3497 12.76L15.2618 12.5783L15.2064 12.3739L15.1648 12.1422L15.1555 11.8878L15.174 11.6062L15.1879 11.4972L15.2064 11.37L15.2341 11.2337L15.2757 11.0883L15.3266 10.943L15.3913 10.793L15.4699 10.6386L15.567 10.4978L15.6825 10.3569L15.8166 10.2252L15.9738 10.1116L16.1494 10.0072L16.3528 9.92084L16.5794 9.85725L16.8336 9.81636L17.1156 9.80273L17.2543 9.80728L17.3976 9.8209L17.5409 9.84362L17.6842 9.87996L17.8229 9.92993L17.9616 9.99353L18.091 10.0753L18.2066 10.1707L18.3083 10.2888L18.3961 10.4251L18.4655 10.5841L18.5163 10.7703L18.5441 10.9748L18.5487 11.211L18.5256 11.4699L18.4701 11.7606L18.4516 11.9696H15.8952L16.057 11.2927H17.5918L17.601 11.2064L17.5964 11.1247L17.5918 11.0474L17.5779 10.9793L17.5502 10.9112L17.527 10.8521L17.4901 10.8021L17.4577 10.7522L17.4161 10.7113L17.3699 10.6795L17.3144 10.6477L17.2635 10.6204L17.2081 10.5977L17.1526 10.5841L17.0925 10.575L17.0278 10.5659L16.9631 10.5705L16.8983 10.5841L16.8382 10.5977L16.7781 10.6159L16.718 10.6431L16.6672 10.6749L16.6163 10.7113L16.5701 10.7522L16.5239 10.8021L16.4823 10.8521L16.4407 10.9112L16.4129 10.9702L16.3806 11.0293L16.3528 11.0974L16.3343 11.1701L16.3205 11.2428L16.1818 11.956Z" stroke="white" stroke-width="0.216" stroke-miterlimit="2.6131"/>
<path fill-rule="evenodd" clip-rule="evenodd" d="M24.5492 10.08L24.503 10.0573L24.4568 10.0391L24.4059 10.0118L24.3551 9.98914L24.3042 9.96642L24.2441 9.94825L24.184 9.92554L24.1193 9.90737L24.0546 9.88919L23.9852 9.87557L23.9159 9.86194L23.8419 9.85285L23.7587 9.84377L23.6801 9.83922H23.5923H23.5045H23.4212L23.3288 9.84377L23.2317 9.85285L23.1346 9.87102L23.0376 9.89828L22.9405 9.93917L22.8388 9.98459L22.7417 10.0482L22.6446 10.1254L22.5568 10.2117L22.4689 10.3253L22.3857 10.4525L22.3071 10.6024L22.2332 10.775L22.1638 10.9704L22.1084 11.1884L22.0899 11.3111L22.076 11.4337L22.0667 11.5564L22.0714 11.6699L22.0806 11.7881L22.1037 11.9016L22.1361 12.0016L22.1777 12.106L22.2286 12.2014L22.2933 12.2878L22.3672 12.3695L22.4504 12.4422L22.5429 12.5013L22.6539 12.5558L22.774 12.6012L22.9081 12.6285L22.9543 12.6421L23.0052 12.6512L23.0699 12.6603L23.1392 12.6648L23.2132 12.6739H23.2964H23.3843L23.4721 12.6648L23.5646 12.6557L23.6524 12.6375L23.7402 12.6148L23.8281 12.5876L23.9159 12.5467L23.9991 12.5013L24.0731 12.4467L24.1424 12.3877L23.9852 13.3053L23.9621 13.3235L23.9436 13.3462L23.9159 13.3689L23.8835 13.3871L23.8419 13.4143L23.7957 13.4416L23.7402 13.4643L23.6755 13.487L23.5923 13.5097L23.5045 13.5279L23.3981 13.5415L23.2733 13.5552L23.1392 13.5597L22.9821 13.5643L22.8018 13.5597L22.603 13.5506L22.4412 13.5325L22.284 13.5007L22.1222 13.4461L21.9604 13.378L21.8032 13.2962L21.6553 13.1918L21.5166 13.0736L21.3872 12.9328L21.2716 12.7784L21.1745 12.6057L21.0867 12.4149L21.0266 12.2014L20.985 11.9698L20.9711 11.729L20.9758 11.4564L21.0127 11.1702L21.0451 11.0294L21.0728 10.8931L21.1098 10.7569L21.1468 10.6297L21.1838 10.5115L21.23 10.3889L21.2762 10.2753L21.3225 10.1663L21.3779 10.0618L21.4288 9.96188L21.4889 9.86648L21.5536 9.77563L21.6137 9.68932L21.683 9.60755L21.757 9.53032L21.831 9.45764L21.9096 9.3895L21.9928 9.32135L22.076 9.26684L22.1638 9.20779L22.2563 9.15782L22.3534 9.11239L22.4504 9.07151L22.5521 9.03516L22.6631 8.99882L22.7694 8.97156L22.8804 8.94885L23.0006 8.92614L23.1208 8.90797L23.2456 8.89434L23.375 8.8898L23.5045 8.88525L23.62 8.8898L23.7264 8.89434L23.8327 8.90797L23.939 8.92159L24.0361 8.93522L24.1332 8.95339L24.221 8.97156L24.3042 8.99428L24.3874 9.01245L24.4568 9.03516L24.5261 9.05333L24.5816 9.07605L24.6278 9.09422L24.6694 9.10785L24.7018 9.12148L24.7249 9.12602L24.5492 10.08Z" fill="white"/>
<path d="M24.5492 10.08L24.503 10.0573L24.4568 10.0391L24.4059 10.0118L24.3551 9.98914L24.3042 9.96642L24.2441 9.94825L24.184 9.92554L24.1193 9.90737L24.0546 9.88919L23.9852 9.87557L23.9159 9.86194L23.8419 9.85285L23.7587 9.84377L23.6801 9.83922H23.5923H23.5045H23.4212L23.3288 9.84377L23.2317 9.85285L23.1346 9.87102L23.0376 9.89828L22.9405 9.93917L22.8388 9.98459L22.7417 10.0482L22.6446 10.1254L22.5568 10.2117L22.4689 10.3253L22.3857 10.4525L22.3071 10.6024L22.2332 10.775L22.1638 10.9704L22.1084 11.1884L22.0899 11.3111L22.076 11.4337L22.0667 11.5564L22.0714 11.6699L22.0806 11.7881L22.1037 11.9016L22.1361 12.0016L22.1777 12.106L22.2286 12.2014L22.2933 12.2878L22.3672 12.3695L22.4504 12.4422L22.5429 12.5013L22.6539 12.5558L22.774 12.6012L22.9081 12.6285L22.9543 12.6421L23.0052 12.6512L23.0699 12.6603L23.1392 12.6648L23.2132 12.6739H23.2964H23.3843L23.4721 12.6648L23.5646 12.6557L23.6524 12.6375L23.7402 12.6148L23.8281 12.5876L23.9159 12.5467L23.9991 12.5013L24.0731 12.4467L24.1424 12.3877L23.9852 13.3053L23.9621 13.3235L23.9436 13.3462L23.9159 13.3689L23.8835 13.3871L23.8419 13.4143L23.7957 13.4416L23.7402 13.4643L23.6755 13.487L23.5923 13.5097L23.5045 13.5279L23.3981 13.5415L23.2733 13.5552L23.1392 13.5597L22.9821 13.5643L22.8018 13.5597L22.603 13.5506L22.4412 13.5325L22.284 13.5007L22.1222 13.4461L21.9604 13.378L21.8032 13.2962L21.6553 13.1918L21.5166 13.0736L21.3872 12.9328L21.2716 12.7784L21.1745 12.6057L21.0867 12.4149L21.0266 12.2014L20.985 11.9698L20.9711 11.729L20.9758 11.4564L21.0127 11.1702L21.0451 11.0294L21.0728 10.8931L21.1098 10.7569L21.1468 10.6297L21.1838 10.5115L21.23 10.3889L21.2762 10.2753L21.3225 10.1663L21.3779 10.0618L21.4288 9.96188L21.4889 9.86648L21.5536 9.77563L21.6137 9.68932L21.683 9.60755L21.757 9.53032L21.831 9.45764L21.9096 9.3895L21.9928 9.32135L22.076 9.26684L22.1638 9.20779L22.2563 9.15782L22.3534 9.11239L22.4504 9.07151L22.5521 9.03516L22.6631 8.99882L22.7694 8.97156L22.8804 8.94885L23.0006 8.92614L23.1208 8.90797L23.2456 8.89434L23.375 8.8898L23.5045 8.88525L23.62 8.8898L23.7264 8.89434L23.8327 8.90797L23.939 8.92159L24.0361 8.93522L24.1332 8.95339L24.221 8.97156L24.3042 8.99428L24.3874 9.01245L24.4568 9.03516L24.5261 9.05333L24.5816 9.07605L24.6278 9.09422L24.6694 9.10785L24.7018 9.12148L24.7249 9.12602L24.5492 10.08Z" stroke="white" stroke-width="0.216" stroke-miterlimit="2.6131"/>
<path fill-rule="evenodd" clip-rule="evenodd" d="M33.1894 13.5685H32.214L32.2879 13.187V13.1506L32.2278 13.2188L32.1723 13.2823L32.1122 13.3369L32.0475 13.3868L31.9828 13.4323L31.9227 13.4686L31.858 13.5004L31.7933 13.5322L31.7239 13.5549L31.6592 13.5731L31.5899 13.5867L31.5205 13.6003L31.4512 13.6094L31.3865 13.6185H31.3125H31.2432L31.0629 13.6049L30.8918 13.5685L30.7393 13.5095L30.6006 13.4323L30.4711 13.3278L30.3602 13.2142L30.2631 13.087L30.1753 12.9416L30.1059 12.7872L30.0505 12.6237L30.0135 12.4556L29.9857 12.2784L29.9719 12.1012L29.9765 11.9241L29.995 11.7469L30.0273 11.5697L30.0782 11.3699L30.1429 11.1745L30.2169 10.9974L30.3047 10.8338L30.3925 10.6794L30.4989 10.5385L30.6098 10.4159L30.7254 10.3023L30.8456 10.2024L30.9796 10.1161L31.1091 10.0388L31.2432 9.97979L31.3865 9.93436L31.5251 9.90256L31.6638 9.87985L31.8071 9.87531L31.9088 9.87985L32.0105 9.88894L32.0984 9.90711L32.1862 9.92982L32.2648 9.95708L32.3341 9.98888L32.4081 10.0252L32.4682 10.0661L32.5237 10.107L32.5792 10.1524L32.6254 10.1978L32.667 10.2387L32.6994 10.2842L32.7317 10.3296L32.7595 10.3705L32.7826 10.4113L33.0276 9.05762H33.9799L33.1894 13.5685Z" fill="white"/>
<path d="M33.1894 13.5685H32.214L32.2879 13.187V13.1506L32.2278 13.2188L32.1723 13.2823L32.1122 13.3369L32.0475 13.3868L31.9828 13.4323L31.9227 13.4686L31.858 13.5004L31.7933 13.5322L31.7239 13.5549L31.6592 13.5731L31.5899 13.5867L31.5205 13.6003L31.4512 13.6094L31.3865 13.6185H31.3125H31.2432L31.0629 13.6049L30.8918 13.5685L30.7393 13.5095L30.6006 13.4323L30.4711 13.3278L30.3602 13.2142L30.2631 13.087L30.1753 12.9416L30.1059 12.7872L30.0505 12.6237L30.0135 12.4556L29.9857 12.2784L29.9719 12.1012L29.9765 11.9241L29.995 11.7469L30.0273 11.5697L30.0782 11.3699L30.1429 11.1745L30.2169 10.9974L30.3047 10.8338L30.3925 10.6794L30.4989 10.5385L30.6098 10.4159L30.7254 10.3023L30.8456 10.2024L30.9796 10.1161L31.1091 10.0388L31.2432 9.97979L31.3865 9.93436L31.5251 9.90256L31.6638 9.87985L31.8071 9.87531L31.9088 9.87985L32.0105 9.88894L32.0984 9.90711L32.1862 9.92982L32.2648 9.95708L32.3341 9.98888L32.4081 10.0252L32.4682 10.0661L32.5237 10.107L32.5792 10.1524L32.6254 10.1978L32.667 10.2387L32.6994 10.2842L32.7317 10.3296L32.7595 10.3705L32.7826 10.4113L33.0276 9.05762H33.9799L33.1894 13.5685Z" stroke="white" stroke-width="0.216" stroke-miterlimit="2.6131"/>
<path fill-rule="evenodd" clip-rule="evenodd" d="M31.5988 12.7326L31.6959 12.7281L31.7884 12.7053L31.8716 12.6826L31.9548 12.6417L32.0288 12.6009L32.0981 12.5509L32.1628 12.4918L32.2229 12.4282L32.2738 12.3601L32.3246 12.2829L32.3708 12.2056L32.4078 12.1239L32.4448 12.0376L32.4726 11.9467L32.4957 11.8559L32.5142 11.7605L32.5327 11.6651L32.5419 11.5651V11.4697L32.5373 11.3743L32.528 11.2835L32.5142 11.1972L32.491 11.1154L32.4633 11.0382L32.4263 10.97L32.3847 10.9019L32.3385 10.8474L32.2876 10.7974L32.2275 10.7565L32.1628 10.7293L32.0981 10.7111L32.0241 10.7065L31.9271 10.7111L31.8392 10.7247L31.7606 10.752L31.6774 10.7883L31.6081 10.8337L31.5387 10.8883L31.4786 10.9473L31.4185 11.0109L31.3677 11.0881L31.3168 11.1699L31.2706 11.2517L31.2336 11.338L31.1966 11.4334L31.1689 11.5288L31.1412 11.6242L31.1227 11.7287L31.1042 11.8786L31.1088 12.0421L31.1365 12.2147L31.1828 12.3737L31.2521 12.5145L31.34 12.6281L31.4555 12.7053L31.5988 12.7326Z" fill="#FBB231"/>
<path fill-rule="evenodd" clip-rule="evenodd" d="M10.0469 12.801L9.90826 13.5687H9.02529L9.0484 13.4279L9.0669 13.3007L9.08077 13.2008L9.09463 13.1508L9.04378 13.2053L8.9883 13.2598L8.92358 13.3143L8.84962 13.3598L8.76641 13.4097L8.67857 13.4506L8.58611 13.4915L8.48904 13.5279L8.38733 13.5597L8.28563 13.5824L8.18393 13.6051L8.08222 13.6187L7.98052 13.6233L7.87882 13.6278L7.77711 13.6187L7.68466 13.6051L7.55984 13.5733L7.44889 13.5369L7.35181 13.4915L7.26397 13.4415L7.18539 13.387L7.11605 13.3234L7.06057 13.2598L7.00971 13.1871L6.96811 13.1145L6.93113 13.0418L6.90339 12.9646L6.8849 12.8873L6.87103 12.8101L6.85717 12.7283L6.85254 12.6557V12.5784L6.86179 12.4421L6.8849 12.3149L6.91726 12.1968L6.96349 12.0787L7.01896 11.9697L7.08368 11.8698L7.15765 11.7744L7.24086 11.6835L7.32869 11.6063L7.42578 11.5336L7.52748 11.47L7.6338 11.4109L7.74476 11.3655L7.86495 11.3246L7.98052 11.2974L8.10534 11.2747H8.10996L8.12846 11.2701H8.15619L8.19318 11.2656L8.23478 11.2565H8.28563L8.33648 11.2474L8.39658 11.2429L8.45668 11.2338L8.51677 11.2292L8.57687 11.2247L8.63235 11.2156L8.69244 11.2111H8.74329L8.79414 11.2065H8.83113H8.91434L8.99755 11.2111H9.07152H9.15011L9.21483 11.2156L9.26106 11.2202L9.29804 11.2247H9.30728L9.31653 11.1974L9.33502 11.1384L9.35351 11.0657L9.36276 10.9976L9.34889 10.9249L9.31653 10.8522L9.27492 10.7931L9.21483 10.7386L9.15011 10.6977L9.07614 10.6659L8.99293 10.6432L8.90047 10.6387L8.80339 10.6341L8.69707 10.6296H8.59074L8.47517 10.6341L8.3596 10.6387L8.24865 10.6523L8.1377 10.6614L8.02675 10.675L7.92042 10.6887L7.81872 10.7068L7.73089 10.725L7.64305 10.7386L7.56909 10.7613L7.50437 10.7841L7.45351 10.8068L7.41653 10.8249L7.66617 9.99362L7.74476 9.96636L7.81872 9.9391L7.90655 9.91185L7.98977 9.89368L8.07298 9.88005L8.16543 9.86642L8.25327 9.85279L8.35035 9.84371L8.44743 9.83916L8.54913 9.83462L8.65546 9.83008H8.76641H8.87736H8.99293L9.11312 9.83462L9.23794 9.83916L9.33502 9.84371L9.44135 9.86188L9.55229 9.88459L9.66324 9.91639L9.76957 9.95728L9.8759 10.0072L9.98222 10.0663L10.0793 10.1299L10.1671 10.2071L10.2457 10.2889L10.3151 10.3797L10.3659 10.4842L10.4029 10.5978L10.426 10.7114V10.8431L10.4029 10.9839L10.0469 12.801Z" fill="white"/>
<path d="M10.0469 12.801L9.90826 13.5687H9.02529L9.0484 13.4279L9.0669 13.3007L9.08077 13.2008L9.09463 13.1508L9.04378 13.2053L8.9883 13.2598L8.92358 13.3143L8.84962 13.3598L8.76641 13.4097L8.67857 13.4506L8.58611 13.4915L8.48904 13.5279L8.38733 13.5597L8.28563 13.5824L8.18393 13.6051L8.08222 13.6187L7.98052 13.6233L7.87882 13.6278L7.77711 13.6187L7.68466 13.6051L7.55984 13.5733L7.44889 13.5369L7.35181 13.4915L7.26397 13.4415L7.18539 13.387L7.11605 13.3234L7.06057 13.2598L7.00971 13.1871L6.96811 13.1145L6.93113 13.0418L6.90339 12.9646L6.8849 12.8873L6.87103 12.8101L6.85717 12.7283L6.85254 12.6557V12.5784L6.86179 12.4421L6.8849 12.3149L6.91726 12.1968L6.96349 12.0787L7.01896 11.9697L7.08368 11.8698L7.15765 11.7744L7.24086 11.6835L7.32869 11.6063L7.42578 11.5336L7.52748 11.47L7.6338 11.4109L7.74476 11.3655L7.86495 11.3246L7.98052 11.2974L8.10534 11.2747H8.10996L8.12846 11.2701H8.15619L8.19318 11.2656L8.23478 11.2565H8.28563L8.33648 11.2474L8.39658 11.2429L8.45668 11.2338L8.51677 11.2292L8.57687 11.2247L8.63235 11.2156L8.69244 11.2111H8.74329L8.79414 11.2065H8.83113H8.91434L8.99755 11.2111H9.07152H9.15011L9.21483 11.2156L9.26106 11.2202L9.29804 11.2247H9.30728L9.31653 11.1974L9.33502 11.1384L9.35351 11.0657L9.36276 10.9976L9.34889 10.9249L9.31653 10.8522L9.27492 10.7931L9.21483 10.7386L9.15011 10.6977L9.07614 10.6659L8.99293 10.6432L8.90047 10.6387L8.80339 10.6341L8.69707 10.6296H8.59074L8.47517 10.6341L8.3596 10.6387L8.24865 10.6523L8.1377 10.6614L8.02675 10.675L7.92042 10.6887L7.81872 10.7068L7.73089 10.725L7.64305 10.7386L7.56909 10.7613L7.50437 10.7841L7.45351 10.8068L7.41653 10.8249L7.66617 9.99362L7.74476 9.96636L7.81872 9.9391L7.90655 9.91185L7.98977 9.89368L8.07298 9.88005L8.16543 9.86642L8.25327 9.85279L8.35035 9.84371L8.44743 9.83916L8.54913 9.83462L8.65546 9.83008H8.76641H8.87736H8.99293L9.11312 9.83462L9.23794 9.83916L9.33502 9.84371L9.44135 9.86188L9.55229 9.88459L9.66324 9.91639L9.76957 9.95728L9.8759 10.0072L9.98222 10.0663L10.0793 10.1299L10.1671 10.2071L10.2457 10.2889L10.3151 10.3797L10.3659 10.4842L10.4029 10.5978L10.426 10.7114V10.8431L10.4029 10.9839L10.0469 12.801Z" stroke="white" stroke-width="0.216" stroke-miterlimit="2.6131"/>
<path fill-rule="evenodd" clip-rule="evenodd" d="M9.20133 11.9013V11.8832L9.18746 11.8695L9.16435 11.8559L9.13199 11.8514L9.09038 11.8423H9.04415H8.9933H8.93783H8.88235L8.82688 11.8514L8.76678 11.8559L8.71131 11.865L8.66046 11.8695L8.6096 11.8832L8.568 11.8923L8.53102 11.9013L8.50328 11.9104L8.47554 11.9195L8.43856 11.9331L8.40158 11.9513L8.35534 11.9695L8.30912 11.9967L8.25827 12.0195L8.21204 12.0467L8.1658 12.0831L8.11958 12.1148L8.07798 12.1557L8.03636 12.2012L8.00401 12.242L7.98089 12.292L7.95778 12.3465L7.94853 12.401L7.94391 12.5192L7.9624 12.6145L7.99476 12.6827L8.04099 12.7327L8.09646 12.769L8.15656 12.7872L8.21204 12.8008H8.26751H8.37384L8.4663 12.7872L8.55875 12.7735L8.63734 12.7554L8.70669 12.7281L8.77603 12.7009L8.83613 12.6691L8.88698 12.6282L8.9332 12.5964L8.97481 12.5555L9.01179 12.5146L9.03953 12.4737L9.06264 12.4328L9.08576 12.392L9.09963 12.3556L9.11349 12.3147L9.14123 12.2148L9.16435 12.1012L9.18746 11.9922L9.20133 11.9013Z" fill="#EC1C2E"/>
<path fill-rule="evenodd" clip-rule="evenodd" d="M2.66453 13.5686H1.71222L2.50735 9.03955H4.16696L4.32414 11.7288L5.47523 9.03955H7.20881L6.39056 13.5686H5.43825L6.04384 10.1843H6.00224L4.57377 13.5686H3.49665L3.49202 13.4278L3.46428 13.0508L3.43655 12.5147L3.39956 11.9015L3.36258 11.2837L3.33022 10.7431L3.30711 10.3524L3.30249 10.1843H3.28862H3.27012H3.24701L2.66453 13.5686Z" fill="white"/>
<path d="M2.66453 13.5686H1.71222L2.50735 9.03955H4.16696L4.32414 11.7288L5.47523 9.03955H7.20881L6.39056 13.5686H5.43825L6.04384 10.1843H6.00224L4.57377 13.5686H3.49665L3.49202 13.4278L3.46428 13.0508L3.43655 12.5147L3.39956 11.9015L3.36258 11.2837L3.33022 10.7431L3.30711 10.3524L3.30249 10.1843H3.28862H3.27012H3.24701L2.66453 13.5686Z" stroke="white" stroke-width="0.216" stroke-miterlimit="2.6131"/>
<path fill-rule="evenodd" clip-rule="evenodd" d="M27.4666 12.801L27.3233 13.5687H26.4403L26.4496 13.4279V13.3007V13.2099L26.4588 13.169L26.4126 13.2189L26.3617 13.2735L26.297 13.3189L26.2277 13.3689L26.1537 13.4143L26.0705 13.4552L25.9827 13.4961L25.8948 13.5324L25.7977 13.5597L25.7007 13.5869L25.6036 13.6051L25.5019 13.6187L25.4002 13.6233L25.3031 13.6278L25.2106 13.6187L25.1136 13.6051L24.9887 13.5733L24.8778 13.5369L24.7761 13.4915L24.6836 13.4415L24.6097 13.387L24.5403 13.3234L24.4849 13.2598L24.4386 13.1871L24.397 13.1145L24.3647 13.0418L24.3369 12.9646L24.3184 12.8873L24.3046 12.8101L24.2953 12.7283L24.2861 12.6557V12.5784L24.2953 12.4421L24.3138 12.3149L24.3462 12.1968L24.3924 12.0787L24.4432 11.9697L24.5126 11.8698L24.5819 11.7744L24.6651 11.6835L24.7576 11.6063L24.8501 11.5336L24.9518 11.47L25.0627 11.4109L25.169 11.3655L25.2846 11.3246L25.4002 11.2974L25.5204 11.2747H25.5296L25.5435 11.2701H25.5712L25.6036 11.2656L25.6498 11.2565H25.7007L25.7515 11.2474L25.807 11.2429L25.8671 11.2338L25.9318 11.2292L25.9919 11.2247L26.052 11.2156L26.1075 11.2111H26.1537L26.2046 11.2065H26.2415H26.3294L26.4126 11.2111H26.4912H26.5698L26.6391 11.2156L26.6946 11.2202L26.7223 11.2247H26.7408L26.7454 11.1974L26.7547 11.1384L26.7685 11.0657L26.7732 10.9976L26.7593 10.9249L26.7316 10.8522L26.6853 10.7931L26.6345 10.7386L26.5698 10.6977L26.4958 10.6659L26.4218 10.6432L26.334 10.6387L26.2369 10.6341L26.1306 10.6296H26.0243L25.9087 10.6341L25.7931 10.6387L25.6822 10.6523L25.5712 10.6614L25.4603 10.675L25.354 10.6887L25.2569 10.7068L25.1644 10.725L25.0812 10.7386L25.0026 10.7613L24.9379 10.7841L24.887 10.8068L24.8501 10.8249L25.0951 9.99362L25.1737 9.96636L25.2569 9.9391L25.3355 9.91185L25.4187 9.89368L25.5065 9.88005L25.5943 9.86642L25.6868 9.85279L25.7793 9.84371L25.881 9.83916L25.9827 9.83462L26.0844 9.83008H26.1907H26.3016H26.4126L26.5328 9.83462L26.653 9.83916L26.7501 9.84371L26.8564 9.86188L26.9627 9.88459L27.0737 9.91639L27.1846 9.95728L27.2909 10.0072L27.3973 10.0663L27.4943 10.1299L27.5868 10.2071L27.6654 10.2889L27.7347 10.3797L27.7902 10.4842L27.8272 10.5978L27.8503 10.7114V10.8431L27.8318 10.9839L27.4666 12.801Z" fill="white"/>
<path fill-rule="evenodd" clip-rule="evenodd" d="M27.3227 13.5912L27.3412 13.573L27.4845 12.8053L27.4429 12.8008L27.2996 13.564L27.3227 13.5458V13.5912L27.3366 13.5867L27.3412 13.573L27.3227 13.5912Z" fill="white"/>
<path fill-rule="evenodd" clip-rule="evenodd" d="M26.4215 13.5688L26.44 13.5917H27.323V13.5459H26.44L26.4631 13.5688H26.4215L26.4169 13.5917H26.44L26.4215 13.5688Z" fill="white"/>
<path fill-rule="evenodd" clip-rule="evenodd" d="M26.4764 13.1825L26.4442 13.1553L26.4304 13.2098L26.4258 13.3006V13.4278L26.4212 13.5687H26.4626L26.4672 13.4278L26.4764 13.3006L26.4718 13.2098V13.1825L26.4396 13.1553L26.4764 13.1825Z" fill="white"/>
<path fill-rule="evenodd" clip-rule="evenodd" d="M25.1083 13.6232L25.21 13.6368L25.3024 13.6459H25.3995L25.5012 13.6368L25.6029 13.6232L25.7046 13.605L25.8017 13.5777L25.8988 13.5505L25.9866 13.5141L26.0791 13.4733L26.1623 13.4324L26.2363 13.387L26.3102 13.337L26.3749 13.287L26.4304 13.2325L26.4766 13.1825L26.4397 13.1553L26.3934 13.2052L26.3472 13.2552L26.2825 13.3006L26.2131 13.3506L26.1438 13.3915L26.056 13.4324L25.9727 13.4733L25.8849 13.5096L25.7925 13.5369L25.6954 13.5641L25.5983 13.5823L25.5012 13.5959L25.3995 13.605H25.3024L25.21 13.5959L25.1175 13.5823L25.1083 13.6232Z" fill="white"/>
<path fill-rule="evenodd" clip-rule="evenodd" d="M24.2625 12.5781V12.6554L24.2718 12.728L24.281 12.8143L24.2949 12.8916L24.3134 12.9688L24.3411 13.046L24.3735 13.1278L24.4197 13.2005L24.4659 13.2732L24.526 13.3368L24.5954 13.4004L24.6739 13.4594L24.7664 13.5139L24.8681 13.5594L24.9837 13.5912L25.1085 13.623L25.1177 13.5821L24.9929 13.5503L24.882 13.5139L24.7849 13.473L24.6971 13.4231L24.6231 13.3686L24.5584 13.3095L24.5029 13.2459L24.4521 13.1778L24.4151 13.1051L24.3827 13.0324L24.355 12.9597L24.3365 12.887L24.3226 12.8053L24.3134 12.728L24.3041 12.6554L24.3087 12.5781H24.2625Z" fill="white"/>
<path fill-rule="evenodd" clip-rule="evenodd" d="M25.5199 11.2563L25.3997 11.2745L25.2795 11.3063L25.164 11.3427L25.0484 11.3926L24.9421 11.4471L24.8357 11.5153L24.7433 11.588L24.6508 11.6697L24.5676 11.756L24.4937 11.856L24.4243 11.9559L24.3688 12.074L24.3226 12.1876L24.2949 12.3148L24.2718 12.442L24.2625 12.5783H24.3087L24.3134 12.442L24.3365 12.3193L24.3642 12.2012L24.4104 12.0831L24.4659 11.9786L24.526 11.8832L24.6 11.7833L24.6786 11.7015L24.771 11.6243L24.8635 11.5516L24.9606 11.488L25.0715 11.4335L25.1778 11.3835L25.2934 11.3472L25.4044 11.3154L25.5199 11.2972V11.2563Z" fill="white"/>
<path fill-rule="evenodd" clip-rule="evenodd" d="M26.2408 11.1836H26.2038L26.1529 11.1881L26.1067 11.1927L26.0512 11.1972L25.9911 11.2018L25.931 11.2063L25.8663 11.2109L25.8062 11.2199L25.7507 11.229L25.6999 11.2336L25.649 11.2381L25.6028 11.2426L25.5704 11.2472L25.5427 11.2517L25.5288 11.2563H25.5196V11.2972H25.5288L25.5473 11.2926L25.5704 11.2881L25.6028 11.2835L25.649 11.279L25.6999 11.2744L25.7507 11.2699L25.8062 11.2608L25.8663 11.2563L25.931 11.2472L25.9911 11.2426L26.0512 11.2381L26.1067 11.2336L26.1529 11.229H26.2038H26.2408V11.1836Z" fill="white"/>
<path fill-rule="evenodd" clip-rule="evenodd" d="M26.7175 11.2199L26.7406 11.2018H26.7221L26.6944 11.1972H26.6389L26.5696 11.1881H26.491H26.4124L26.3292 11.1836H26.2413V11.229H26.3292H26.4124L26.491 11.2381H26.5696H26.6389L26.6944 11.2426H26.7221H26.7406L26.7591 11.229L26.7406 11.2426L26.7545 11.2472L26.7591 11.229L26.7175 11.2199Z" fill="white"/>
<path fill-rule="evenodd" clip-rule="evenodd" d="M26.754 10.9976H26.7494L26.7448 11.0657L26.7356 11.1338L26.7218 11.1974L26.7172 11.2202L26.7586 11.2292L26.7678 11.202L26.777 11.1384L26.7862 11.0657L26.7954 10.9976H26.754Z" fill="white"/>
<path fill-rule="evenodd" clip-rule="evenodd" d="M26.3338 10.6568V10.6613L26.417 10.6658L26.491 10.684L26.5603 10.7158L26.6204 10.7567L26.6667 10.8067L26.7083 10.8657L26.7406 10.9248L26.7545 10.9975H26.7961L26.7822 10.9202L26.7545 10.843L26.7036 10.7794L26.6482 10.7249L26.5788 10.6749L26.5049 10.6431L26.4216 10.625L26.3338 10.6113V10.6159V10.6568Z" fill="white"/>
<path fill-rule="evenodd" clip-rule="evenodd" d="M24.8308 10.8245L24.8632 10.8427L24.9002 10.8245L24.9464 10.8018L25.0065 10.7836L25.0804 10.7609L25.1683 10.7427L25.2561 10.7246L25.3578 10.7109L25.4595 10.6973L25.5705 10.6791L25.6814 10.67L25.7924 10.661L25.9079 10.6564H26.0235H26.1298H26.2362H26.3332V10.6155L26.2362 10.611L26.1298 10.6064H26.0235L25.9079 10.611L25.7924 10.6201L25.6814 10.6292L25.5705 10.6382L25.4595 10.6564L25.3532 10.6655L25.2515 10.6837L25.159 10.7018L25.0758 10.72L24.9972 10.7382L24.9325 10.7609L24.877 10.7836L24.8354 10.8109L24.8724 10.829L24.8308 10.8245Z" fill="white"/>
<path fill-rule="evenodd" clip-rule="evenodd" d="M25.0897 9.9751L25.0758 9.99327L24.8308 10.8246L24.8724 10.8291L25.1174 9.99781L25.1036 10.016L25.0897 9.9751L25.0804 9.97964L25.0758 9.99327L25.0897 9.9751Z" fill="white"/>
<path fill-rule="evenodd" clip-rule="evenodd" d="M26.6523 9.8167L26.5321 9.81216L26.4119 9.80762H26.301H26.19H26.0837L25.982 9.81216L25.8803 9.8167L25.7786 9.82579L25.6861 9.83033L25.5891 9.84396L25.5012 9.85759L25.4134 9.87576L25.3302 9.89393L25.247 9.91664L25.1684 9.9439L25.0898 9.9757L25.1037 10.0166L25.1822 9.98478L25.2608 9.95753L25.3394 9.93481L25.4226 9.91664L25.5105 9.89847L25.5983 9.88484L25.6861 9.87121L25.7786 9.86667L25.8803 9.85759L25.982 9.85304H26.0837H26.19H26.301H26.4119L26.5321 9.85759H26.6523V9.8167Z" fill="white"/>
<path fill-rule="evenodd" clip-rule="evenodd" d="M27.8542 10.9839L27.8727 10.8431V10.7113L27.8495 10.5932L27.8079 10.4796L27.7525 10.3706L27.6831 10.2752L27.5953 10.1889L27.5121 10.1117L27.4104 10.0481L27.304 9.98449L27.1885 9.93906L27.0822 9.89363L26.9666 9.86638L26.8556 9.83912L26.7493 9.82549L26.6522 9.81641V9.85729L26.7493 9.86638L26.851 9.88L26.9573 9.90726L27.0683 9.93906L27.1746 9.97994L27.2809 10.0254L27.3873 10.0799L27.4797 10.148L27.5722 10.2253L27.6461 10.3025L27.7155 10.3933L27.7663 10.4933L27.8033 10.5978L27.8311 10.7113V10.8431L27.8126 10.9793L27.8542 10.9839Z" fill="white"/>
<path fill-rule="evenodd" clip-rule="evenodd" d="M27.4845 12.8057L27.8543 10.984L27.8127 10.9795L27.4429 12.8011L27.4845 12.8057Z" fill="white"/>
<path fill-rule="evenodd" clip-rule="evenodd" d="M26.6152 11.902L26.606 11.8838L26.5967 11.8656L26.569 11.8566L26.5366 11.8429H26.495L26.4488 11.8384H26.3979L26.3471 11.8429L26.287 11.8475L26.2315 11.8566L26.176 11.8611L26.1252 11.8702L26.0697 11.8793L26.0235 11.8838L25.9819 11.8974L25.9449 11.902L25.9218 11.9065L25.894 11.9156L25.8571 11.9292L25.8201 11.9429L25.7738 11.961L25.7322 11.9837L25.6814 12.0065L25.6352 12.0383L25.5889 12.0701L25.5427 12.1064L25.5057 12.1427L25.4687 12.1882L25.4364 12.2381L25.4133 12.2881L25.3901 12.3426L25.3809 12.4017L25.3763 12.5198L25.3948 12.6152L25.4225 12.6833L25.4641 12.7333L25.515 12.7696L25.5751 12.7878L25.6352 12.8014H25.6953H25.8016L25.8987 12.7878L25.9911 12.7696L26.0697 12.7469L26.1483 12.7197L26.213 12.6879L26.2777 12.6561L26.3332 12.6152L26.3841 12.5743L26.4257 12.5289L26.4626 12.488L26.495 12.4426L26.5181 12.4017L26.5366 12.3608L26.5505 12.3199L26.5644 12.2836L26.5782 12.1836L26.5967 12.0837L26.606 11.9883L26.6152 11.902Z" fill="#FBB231"/>
<path fill-rule="evenodd" clip-rule="evenodd" d="M33.8453 13.0958L33.85 13.0141L33.8777 12.9232L33.9286 12.8414L33.9886 12.7688L34.0626 12.7097L34.1458 12.6688L34.2383 12.6416L34.3354 12.6279L34.4324 12.6416L34.5249 12.6688L34.6081 12.7097L34.6821 12.7688L34.7422 12.8414L34.793 12.9232L34.8208 13.0141L34.8254 13.0958H34.7191V13.0322L34.6959 12.955L34.6636 12.8869L34.6174 12.8278L34.5619 12.7824L34.4925 12.746L34.4139 12.7233L34.3354 12.7142L34.2568 12.7233L34.1782 12.746L34.1088 12.7824L34.0534 12.8278L34.0071 12.8869L33.9748 12.955L33.9517 13.0322L33.947 13.0958H33.8453Z" fill="white"/>
<path fill-rule="evenodd" clip-rule="evenodd" d="M34.1602 13.0957V12.8867H34.3543L34.3959 12.8913L34.4329 12.9003L34.4606 12.9094L34.4884 12.9231L34.5022 12.9458L34.5161 12.9639L34.5254 12.9867L34.53 13.0139L34.5254 13.0412L34.5161 13.0684L34.5069 13.0866L34.5022 13.0957H34.3543L34.3682 13.0911L34.3913 13.0866L34.4144 13.0821L34.4283 13.073L34.4468 13.0639L34.4514 13.0548L34.456 13.0366V13.0139V12.9957L34.4468 12.9821L34.4375 12.973L34.4283 12.9685L34.4098 12.9639L34.3913 12.9594H34.3728H34.3543H34.248V13.0957H34.1602Z" fill="white"/>
<path fill-rule="evenodd" clip-rule="evenodd" d="M33.8456 13.0962L33.841 13.1144L33.8503 13.2143L33.878 13.3097L33.9288 13.3915L33.9889 13.4596L34.0629 13.5187L34.1461 13.5641L34.2386 13.5913L34.3356 13.605L34.4327 13.5913L34.5252 13.5641L34.6084 13.5187L34.6824 13.4596L34.7425 13.3915L34.7933 13.3097L34.821 13.2143L34.8303 13.1144L34.8257 13.0962H34.7193L34.724 13.1144L34.7193 13.2007L34.6962 13.2734L34.6639 13.3415L34.6176 13.4006L34.5622 13.446L34.4928 13.4869L34.4142 13.5096L34.3356 13.5141L34.2571 13.5096L34.1785 13.4869L34.1091 13.446L34.0537 13.4006L34.0074 13.3415L33.9751 13.2734L33.9519 13.2007L33.9473 13.1144V13.0962H33.8456Z" fill="white"/>
<path fill-rule="evenodd" clip-rule="evenodd" d="M34.1602 13.0962V13.3052H34.248V13.1325H34.3358L34.4422 13.3052H34.5115L34.4052 13.1325H34.4283L34.456 13.128L34.4745 13.1189L34.493 13.1053L34.5022 13.0962H34.3543L34.3358 13.1007H34.248V13.0962H34.1602Z" fill="white"/>
<path d="M33.841 13.114L33.8503 13.0141L33.878 12.9187L33.9288 12.8369L33.9889 12.7642L34.0629 12.7052L34.1461 12.6643L34.2386 12.637L34.3356 12.6279L34.4327 12.637L34.5252 12.6643L34.6084 12.7052L34.6824 12.7642L34.7425 12.8369L34.7933 12.9187L34.821 13.0141L34.8303 13.114L34.821 13.2139L34.7933 13.3048L34.7425 13.3866L34.6824 13.4547L34.6084 13.5138L34.5252 13.5592L34.4327 13.5864L34.3356 13.5955L34.2386 13.5864L34.1461 13.5592L34.0629 13.5138L33.9889 13.4547L33.9288 13.3866L33.878 13.3048L33.8503 13.2139L33.841 13.114ZM34.2478 13.3048H34.16V12.8869H34.3541L34.3957 12.8914L34.4327 12.896L34.4605 12.905L34.4836 12.9187L34.5021 12.9414L34.5159 12.9641L34.5252 12.9868L34.5298 13.0095L34.5252 13.0413L34.5159 13.064L34.5067 13.0867L34.4928 13.1049L34.4743 13.1185L34.4512 13.1276L34.4281 13.1367H34.405L34.5113 13.3093H34.442L34.3356 13.1367H34.2478V13.3048V13.3048ZM34.3356 13.1004L34.368 13.0913L34.3911 13.0867L34.4096 13.0822L34.4281 13.0731L34.442 13.064L34.4512 13.0549L34.4558 13.0368V13.0141L34.4512 12.9959L34.442 12.9823L34.4327 12.9777L34.4235 12.9686L34.405 12.9641L34.3865 12.9595H34.368H34.3449H34.2386V13.0958H34.3356V13.1004ZM34.3356 13.5138L34.4189 13.5047L34.4974 13.482L34.5622 13.4456L34.6176 13.3957L34.6639 13.3366L34.7009 13.273L34.724 13.1958L34.7286 13.114L34.724 13.0322L34.7009 12.955L34.6639 12.8869L34.6176 12.8278L34.5622 12.7778L34.4974 12.7415L34.4189 12.7188L34.3356 12.7097L34.2571 12.7188L34.1785 12.7415L34.1137 12.7778L34.0583 12.8278L34.012 12.8869L33.9751 12.955L33.9519 13.0322L33.9427 13.114L33.9519 13.1958L33.9751 13.273L34.012 13.3366L34.0583 13.3957L34.1137 13.4456L34.1785 13.482L34.2571 13.5047L34.3356 13.5138Z" stroke="white" stroke-width="0.216" stroke-miterlimit="2.6131"/>
<path fill-rule="evenodd" clip-rule="evenodd" d="M27.7298 13.5689H28.7191L29.0704 11.6065L29.0843 11.5292L29.1074 11.4566L29.1305 11.3793L29.1583 11.3021L29.1906 11.2294L29.2322 11.1567L29.2785 11.0841L29.3339 11.0205L29.3987 10.9614L29.468 10.9069L29.5512 10.8524L29.639 10.8115L29.7407 10.7797L29.8563 10.7524L29.9765 10.7297L30.1152 10.7252H30.1614H30.1892H30.203L30.3602 9.83936L30.2631 9.8439L30.1661 9.85298L30.0782 9.87115L29.995 9.89387L29.9164 9.92112L29.8424 9.95747L29.7731 9.99381L29.7084 10.0392L29.6437 10.0847L29.5836 10.1346L29.5281 10.1891L29.4726 10.2437L29.4171 10.3027L29.3663 10.3663L29.3154 10.4299L29.2646 10.4981L29.3709 9.8757H28.3862L27.7298 13.5689Z" fill="white"/>
<path d="M27.7298 13.5689H28.7191L29.0704 11.6065L29.0843 11.5292L29.1074 11.4566L29.1305 11.3793L29.1583 11.3021L29.1906 11.2294L29.2322 11.1567L29.2785 11.0841L29.3339 11.0205L29.3987 10.9614L29.468 10.9069L29.5512 10.8524L29.639 10.8115L29.7407 10.7797L29.8563 10.7524L29.9765 10.7297L30.1152 10.7252H30.1614H30.1892H30.203L30.3602 9.83936L30.2631 9.8439L30.1661 9.85298L30.0782 9.87115L29.995 9.89387L29.9164 9.92112L29.8424 9.95747L29.7731 9.99381L29.7084 10.0392L29.6437 10.0847L29.5836 10.1346L29.5281 10.1891L29.4726 10.2437L29.4171 10.3027L29.3663 10.3663L29.3154 10.4299L29.2646 10.4981L29.3709 9.8757H28.3862L27.7298 13.5689Z" stroke="white" stroke-width="0.216" stroke-miterlimit="2.6131"/>
<path fill-rule="evenodd" clip-rule="evenodd" d="M18.4374 13.5689H19.4267H19.4406L19.7781 11.6065L19.7919 11.5292L19.8104 11.4566L19.8289 11.3839L19.852 11.3157L19.8798 11.2476L19.9168 11.184L19.9584 11.1204L20.0092 11.0613L20.0647 11.0114L20.1248 10.9569L20.2034 10.916L20.2866 10.8796L20.3883 10.8478L20.4946 10.8206L20.6148 10.8024L20.7535 10.7933H20.7627L20.7766 10.7979H20.7951H20.809L20.8275 10.8024L20.8413 10.807L20.8506 10.8115H20.8552L20.8598 10.7979L20.8691 10.7524L20.8829 10.6934L20.9014 10.6162L20.9245 10.5253L20.9523 10.4299L20.9846 10.3345L21.0124 10.2391L21.0447 10.171L21.0771 10.1074L21.1141 10.0392L21.1464 9.98018L21.1788 9.93021L21.2019 9.88933L21.2204 9.86661L21.2297 9.85298H21.225H21.2112L21.1927 9.84844L21.1696 9.8439H21.1464L21.1187 9.83936H21.091H21.0679L20.9569 9.8439L20.8598 9.85298L20.7674 9.87115L20.6842 9.89387L20.6056 9.92112L20.5316 9.95292L20.4623 9.98927L20.4022 10.0302L20.3421 10.0756L20.2866 10.1255L20.2311 10.1801L20.1803 10.2391L20.1248 10.2982L20.0786 10.3618L20.0277 10.4299L19.9722 10.4981L20.0971 9.8757H19.0939L18.4374 13.5689Z" fill="white"/>
<path d="M18.4374 13.5689H19.4267H19.4406L19.7781 11.6065L19.7919 11.5292L19.8104 11.4566L19.8289 11.3839L19.852 11.3157L19.8798 11.2476L19.9168 11.184L19.9584 11.1204L20.0092 11.0613L20.0647 11.0114L20.1248 10.9569L20.2034 10.916L20.2866 10.8796L20.3883 10.8478L20.4946 10.8206L20.6148 10.8024L20.7535 10.7933H20.7627L20.7766 10.7979H20.7951H20.809L20.8275 10.8024L20.8413 10.807L20.8506 10.8115H20.8552L20.8598 10.7979L20.8691 10.7524L20.8829 10.6934L20.9014 10.6162L20.9245 10.5253L20.9523 10.4299L20.9846 10.3345L21.0124 10.2391L21.0447 10.171L21.0771 10.1074L21.1141 10.0392L21.1464 9.98018L21.1788 9.93021L21.2019 9.88933L21.2204 9.86661L21.2297 9.85298H21.225H21.2112L21.1927 9.84844L21.1696 9.8439H21.1464L21.1187 9.83936H21.091H21.0679L20.9569 9.8439L20.8598 9.85298L20.7674 9.87115L20.6842 9.89387L20.6056 9.92112L20.5316 9.95292L20.4623 9.98927L20.4022 10.0302L20.3421 10.0756L20.2866 10.1255L20.2311 10.1801L20.1803 10.2391L20.1248 10.2982L20.0786 10.3618L20.0277 10.4299L19.9722 10.4981L20.0971 9.8757H19.0939L18.4374 13.5689Z" stroke="white" stroke-width="0.216" stroke-miterlimit="2.6131"/>
<path fill-rule="evenodd" clip-rule="evenodd" d="M33.8501 17.1941V17.1805L33.8778 17.0941L33.9287 17.0124L33.9888 16.9442L34.0627 16.8897L34.146 16.8488L34.2384 16.8261L34.3355 16.8125L34.4326 16.8261L34.525 16.8488L34.6083 16.8897L34.6822 16.9442L34.7423 17.0124L34.7932 17.0941L34.8209 17.1805V17.1941H34.7192L34.6961 17.1259L34.6637 17.0578L34.6175 16.9988L34.562 16.9533L34.4927 16.9124L34.4141 16.8897L34.3355 16.8806L34.2569 16.8897L34.1783 16.9124L34.109 16.9533L34.0535 16.9988L34.0073 17.0578L33.9749 17.1259L33.9518 17.1941H33.8501Z" fill="#FBB231"/>
<path fill-rule="evenodd" clip-rule="evenodd" d="M34.1602 17.1938V17.0757H34.3543H34.3959L34.4329 17.0802L34.4606 17.0893L34.4884 17.1029L34.5022 17.1211L34.5161 17.1393L34.5254 17.1665L34.53 17.1938H34.456V17.1802V17.162L34.4468 17.1484L34.4375 17.1393L34.4283 17.1347L34.4098 17.1302L34.3913 17.1257H34.3728H34.3543H34.248V17.1938H34.1602Z" fill="#FBB231"/>
<path fill-rule="evenodd" clip-rule="evenodd" d="M33.841 17.2711L33.8502 17.1938H33.9514V17.1984L33.9468 17.2711H33.841Z" fill="#FBB231"/>
<path fill-rule="evenodd" clip-rule="evenodd" d="M34.1602 17.2711V17.1938H34.248V17.2665H34.3358L34.3682 17.2574L34.3913 17.2529L34.4144 17.2484L34.4283 17.2393L34.4468 17.2302L34.4514 17.2211L34.456 17.2029V17.1938H34.53L34.5254 17.2211L34.5161 17.2393L34.5069 17.2574L34.493 17.2711H34.1602Z" fill="#FBB231"/>
<path fill-rule="evenodd" clip-rule="evenodd" d="M34.724 17.2711L34.7194 17.1984V17.1938H34.8207L34.8299 17.2711H34.724Z" fill="#FBB231"/>
<path fill-rule="evenodd" clip-rule="evenodd" d="M33.841 17.271V17.2801L33.8503 17.38L33.878 17.4754L33.9288 17.5572L33.9889 17.6299L34.0629 17.6889L34.1461 17.7298L34.2386 17.7571L34.3356 17.7662L34.4327 17.7571L34.5252 17.7298L34.6084 17.6889L34.6824 17.6299L34.7425 17.5572L34.7933 17.4754L34.821 17.38L34.8303 17.2801V17.271H34.724V17.2801L34.7193 17.3664L34.6962 17.4391L34.6639 17.5072L34.6176 17.5663L34.5622 17.6117L34.4928 17.6526L34.4142 17.6753L34.3356 17.6798L34.2571 17.6753L34.1785 17.6526L34.1091 17.6117L34.0537 17.5663L34.0074 17.5072L33.9751 17.4391L33.9519 17.3664L33.9473 17.2801V17.271H33.841Z" fill="#FBB231"/>
<path fill-rule="evenodd" clip-rule="evenodd" d="M34.1602 17.271V17.4709H34.248V17.2983H34.3358L34.4422 17.4709H34.5115L34.4052 17.2983H34.4283L34.456 17.2937L34.4745 17.2846L34.493 17.271H34.1602Z" fill="#FBB231"/>
<path fill-rule="evenodd" clip-rule="evenodd" d="M18.5442 10.9748L18.5165 10.7703L18.4656 10.5886L18.3963 10.4296L18.3085 10.2933L18.2021 10.1752L18.0866 10.0798L17.9618 9.99807L17.8231 9.93447L17.6844 9.87996L17.5411 9.84362L17.3978 9.8209L17.2545 9.80728L17.1158 9.80273L16.8292 9.81636L16.5795 9.85725L16.353 9.92084L16.1496 10.0072L15.9739 10.1116L15.8214 10.2297L15.6827 10.3615L15.5717 10.4978L15.4747 10.6431L15.3961 10.793L15.3313 10.943L15.2805 11.0883L15.2435 11.2337L15.2158 11.3654L15.1973 11.4926L15.1834 11.6017L15.1649 11.8833L15.1742 12.1377L15.2111 12.3694L15.2712 12.5738L15.3545 12.7555L15.4562 12.9145L15.5764 13.0553L15.715 13.1734L15.863 13.2734L16.0202 13.3597L16.1866 13.4278L16.3576 13.4778L16.5333 13.5187L16.709 13.5414L16.8846 13.5596L17.0557 13.5641H17.1712L17.2822 13.5596H17.3747L17.4671 13.555L17.5457 13.5505L17.6197 13.5459L17.689 13.5368L17.7537 13.5278L17.8138 13.5187L17.8693 13.5051L17.9248 13.4869L17.9756 13.4687L18.0265 13.446L18.082 13.4278L18.1374 13.4006L18.1929 13.3733L18.3316 12.5238L18.2299 12.5829L18.1328 12.6374L18.0311 12.6783L17.934 12.7146L17.8416 12.7464L17.7445 12.7646L17.6474 12.7828L17.5549 12.7964L17.4579 12.8055L17.3654 12.81H17.2683L17.1759 12.8055L17.0834 12.7964L16.991 12.7873L16.9031 12.7782L16.8107 12.7646L16.7413 12.751L16.6766 12.7282L16.6073 12.6964L16.5425 12.6601L16.4778 12.6192L16.4223 12.5693L16.3715 12.5193L16.3206 12.4602L16.279 12.4012L16.242 12.3376L16.2143 12.274L16.1866 12.2058L16.1727 12.1422L16.1681 12.0786L16.1727 12.0196L16.182 11.9742H18.4564L18.4749 11.7652L18.5257 11.4745L18.5489 11.211L18.5442 10.9748ZM17.5919 11.2927H16.3114V11.2882L16.3206 11.2382L16.3345 11.1656L16.3576 11.0974L16.3807 11.0293L16.4131 10.9657L16.4455 10.9066L16.4824 10.8521L16.524 10.8021L16.5703 10.7522L16.6165 10.7113L16.672 10.6749L16.7228 10.6431L16.7829 10.6159L16.843 10.5977L16.9031 10.5841L16.9678 10.575L17.0326 10.5705L17.0973 10.5795L17.1574 10.5886L17.2129 10.6023L17.2683 10.6204L17.3192 10.6477L17.37 10.6795L17.4163 10.7158L17.4579 10.7567L17.4948 10.8067L17.5318 10.8566L17.5549 10.9157L17.5781 10.9793L17.5919 11.0474L17.6012 11.1247L17.6058 11.2064L17.5919 11.2927Z" fill="white"/>
</svg>
