<svg width="36" height="36" viewBox="0 0 36 36" fill="none">
<g clip-path="url(#clip0_27_708)">
<path d="M25 15.9202C27.3 13.4202 28.12 9.82017 27 6.36017C26.07 3.49017 23.77 1.27017 20.85 0.410172C17.85 -0.469828 14.75 0.070172 12.32 1.88017C9.93 3.67017 8.5 6.52017 8.5 9.50017C8.5 11.9102 9.42 14.2002 11.01 15.9302C6 18.1602 3 22.8302 3 28.6602V35.0002H6V28.6602C6 23.2402 9.14 19.2202 14.42 17.9202L15.4 17.6502V15.4902L14.79 15.1402C12.76 13.9802 11.5 11.8202 11.5 9.50017C11.5 7.43017 12.45 5.53017 14.11 4.29017C15.77 3.05017 17.92 2.68017 20 3.29017C21.94 3.86017 23.53 5.39017 24.14 7.29017C25.31 10.8902 23.52 13.8202 21.2 15.1502L20.63 15.5002V17.6902L21.61 17.9302C26.86 19.2202 30 23.2302 30 28.6602V35.0002H33V28.6602C33 22.8302 29.99 18.1602 25 15.9202Z" fill="currentColor"/>
</g>
<defs>
<clipPath id="clip0_27_708">
<rect width="30" height="35" fill="white" transform="translate(3)"/>
</clipPath>
</defs>
</svg>
