<svg viewBox="0 0 36 40" fill="none" >
<path d="M-1.57361e-06 18C-1.26238e-06 14.4399 1.05568 10.9598 3.03355 7.99973C5.01141 5.03965 7.82263 2.73254 11.1117 1.37017C14.4008 0.00778912 18.02 -0.348671 21.5116 0.345864C25.0033 1.0404 28.2106 2.75473 30.7279 5.27208C33.2453 7.78942 34.9596 10.9967 35.6541 14.4884C36.3487 17.98 35.9922 21.5992 34.6298 24.8883C33.2675 28.1774 30.9603 30.9886 28.0003 32.9665C25.0402 34.9443 21.5601 36 18 36L18 25.0027C19.385 25.0027 20.7389 24.592 21.8905 23.8225C23.042 23.053 23.9396 21.9594 24.4696 20.6798C24.9996 19.4002 25.1383 17.9922 24.8681 16.6338C24.5979 15.2755 23.931 14.0277 22.9516 13.0484C21.9723 12.069 20.7245 11.4021 19.3661 11.1319C18.0078 10.8617 16.5998 11.0004 15.3202 11.5304C14.0406 12.0604 12.947 12.958 12.1775 14.1095C11.408 15.2611 10.9973 16.615 10.9973 18L-1.57361e-06 18Z" fill="currentColor"/>
<path d="M-8.94116e-07 30.9999L14 40L14 22L-8.94116e-07 30.9999Z" fill="currentColor"/>
<rect x="10" y="25" width="8" height="11" fill="currentColor"/>
</svg>
