<svg width="37" height="37" viewBox="0 0 37 37" fill="none">
<g clip-path="url(#clip0_92_1432)">
<path d="M28.0601 25.94L36.0601 33.94L33.9401 36.06L25.9401 28.06L23.4601 23.46L28.0601 25.94Z" fill="currentColor"/>
<path d="M14.5 29C22.5 29 29 22.5 29 14.5C29 6.5 22.49 0 14.5 0C6.51 0 -1.90735e-06 6.5 -1.90735e-06 14.5C-1.90735e-06 22.5 6.5 29 14.5 29ZM14.5 3C20.84 3 26 8.16 26 14.5C26 20.84 20.84 26 14.5 26C8.16 26 3 20.84 3 14.5C3 8.16 8.16 3 14.5 3Z" fill="currentColor"/>
</g>
<defs>
<clipPath id="clip0_92_1432">
<rect width="36.06" height="36.06" fill="currentColor"/>
</clipPath>
</defs>
</svg>
