<svg viewBox="0 0 55 45" fill="none">
<path fill-rule="evenodd" clip-rule="evenodd" d="M48.0107 0.849285C43.3944 2.41032 33.5274 6.48412 17.4584 13.463C14.2349 14.8629 10.0822 16.6621 8.2304 17.4612C1.07768 20.5471 0 21.1789 0 22.2857C0 23.638 0.979668 24.1875 6.23515 25.7837C10.086 26.9531 12.8768 27.4981 14.0932 27.318C15.8807 27.0536 17.5305 26.0725 28.4959 18.7519C34.4417 14.7829 39.5658 11.453 39.883 11.3523C40.2726 11.2286 40.5866 11.2964 40.8517 11.5618C41.1839 11.8942 41 12.5 40.8894 12.617C40.5485 13.254 35.3556 18.312 28.1178 25.0567C26.23 26.8157 24.4625 28.6162 24.1897 29.0576C23.3828 30.3633 23.5325 31.2871 24.7536 32.5346C25.7878 33.5911 40.0222 43.2965 42.1846 44.4193C42.9223 44.8024 43.7274 44.9889 44.6891 44.9997C45.9276 45.0131 46.5142 44.6245 46.8706 44.2834C47.2911 43.8808 47.6466 43.5214 48.1067 42.2881C49.1911 39.3818 54.0139 9.72091 54.3012 4.19033C54.3553 3.14933 54.3012 3.27468 54.3012 2.43326C54.3012 1.93326 54.1211 1.20593 53.6762 0.760994C52.6369 -0.278282 51.2826 -0.257081 48.0107 0.849285Z" fill="currentColor"/>
</svg>
