<svg viewBox="0 0 57 20" fill="none">
<path d="M24.5882 18.8665H19.9576L22.8508 1.14014H27.4814L24.5882 18.8665Z" fill="#0066B2"/>
<path d="M16.0674 1.14083L11.6559 13.3301L11.1346 10.7009L9.57852 2.73041C9.57852 2.73041 9.38966 1.1333 7.38029 1.1333H0.0830948L0 1.43464C0 1.43464 2.22844 1.89419 4.84214 3.46116L8.86088 18.8672H13.6804L21.0455 1.14083H16.0674Z" fill="#0066B2"/>
<path d="M52.47 18.8665H56.7229L53.0139 1.14014H49.2897C47.575 1.14014 47.1519 2.4585 47.1519 2.4585L40.2476 18.8665H45.0746L46.0415 16.2298H51.9261L52.47 18.8665ZM47.3786 12.5986L49.811 5.96159L51.1783 12.5986H47.3786Z" fill="#0066B2"/>
<path d="M40.618 5.40459L41.2752 1.60017C41.2752 1.60017 39.2356 0.824219 37.1129 0.824219C34.8165 0.824219 29.3625 1.82618 29.3625 6.69283C29.3625 11.2732 35.7683 11.3335 35.7683 13.7367C35.7683 16.1399 30.0272 15.7104 28.1311 14.1962L27.4437 18.1739C27.4437 18.1739 29.5135 19.1759 32.6711 19.1759C35.8287 19.1759 40.5953 17.5411 40.5953 13.1038C40.5953 8.49334 34.1366 8.06393 34.1366 6.06001C34.129 4.0561 38.6388 4.31223 40.618 5.40459Z" fill="#0066B2"/>
<path d="M11.1346 10.7077L9.57852 2.73724C9.57852 2.73724 9.38966 1.14014 7.38029 1.14014H0.0830949L0 1.44148C0 1.44148 3.50507 2.16469 6.86662 4.88429C10.0846 7.47582 11.1346 10.7077 11.1346 10.7077Z" fill="#F9A533"/>
</svg>
