<svg width="36" height="36" viewBox="0 0 36 36" fill="none" xmlns="http://www.w3.org/2000/svg">
<path d="M24 24H30V14C30 7.37258 24.6274 2 18 2V2C11.3726 2 6 7.37258 6 14L6 24H12" stroke="#1D1D1B" stroke-width="3"/>
<path d="M18 23H17C10.3726 23 5 28.3726 5 35V35" stroke="#1D1D1B" stroke-width="3"/>
<path d="M18 23H19C25.6274 23 31 28.3726 31 35V35" stroke="#1D1D1B" stroke-width="3"/>
<path d="M11 15H10H11ZM11 12V11H10V12H11ZM25 11H26V9.67942L24.7289 10.0375L25 11ZM24 15C24 16.5913 23.3679 18.1174 22.2426 19.2426L23.6569 20.6569C25.1571 19.1566 26 17.1217 26 15H24ZM22.2426 19.2426C21.1174 20.3679 19.5913 21 18 21V23C20.1217 23 22.1566 22.1571 23.6569 20.6569L22.2426 19.2426ZM18 21C16.4087 21 14.8826 20.3679 13.7574 19.2426L12.3431 20.6569C13.8434 22.1571 15.8783 23 18 23V21ZM13.7574 19.2426C12.6321 18.1174 12 16.5913 12 15H10C10 17.1217 10.8429 19.1566 12.3431 20.6569L13.7574 19.2426ZM12 15V12H10V15H12ZM24 11V15H26V11H24ZM11 12C11 13 11 13 11 13C11 13 11 13 11 13C11 13 11 13 11.0001 13C11.0001 13 11.0001 13 11.0001 13C11.0001 13 11.0001 13 11.0002 13C11.0002 13 11.0002 13 11.0002 13C11.0003 13 11.0003 13 11.0003 13C11.0003 13 11.0004 13 11.0004 13C11.0005 13 11.0005 13 11.0005 13C11.0006 13 11.0006 13 11.0007 13C11.0007 13 11.0008 13 11.0008 13C11.0008 13 11.0009 13 11.001 13C11.001 13 11.0011 13 11.0011 13C11.0012 13 11.0012 13 11.0013 13C11.0014 13 11.0014 13 11.0015 13C11.0016 13 11.0017 13 11.0017 13C11.0018 13 11.0019 13 11.002 13C11.002 13 11.0021 13 11.0022 13C11.0023 13 11.0024 13 11.0025 13C11.0026 13 11.0027 13 11.0027 13C11.0028 13 11.0029 13 11.003 13C11.0031 13 11.0032 13 11.0034 13C11.0035 13 11.0036 13 11.0037 13C11.0038 13 11.0039 13 11.004 13C11.0041 13 11.0043 13 11.0044 13C11.0045 13 11.0046 13 11.0048 13C11.0049 13 11.005 13 11.0052 13C11.0053 13 11.0054 13 11.0056 13C11.0057 13 11.0058 13 11.006 13C11.0061 13 11.0063 13 11.0064 13C11.0066 13 11.0067 13 11.0069 13C11.0071 13 11.0072 13 11.0074 13C11.0076 13 11.0077 13 11.0079 13C11.0081 13 11.0082 13 11.0084 13C11.0086 13 11.0088 13 11.0089 13C11.0091 13 11.0093 13 11.0095 13C11.0097 13 11.0099 13 11.0101 13C11.0103 13 11.0105 13 11.0107 13C11.0109 13 11.0111 13 11.0113 13C11.0115 13 11.0117 13 11.0119 13C11.0121 13 11.0123 13 11.0126 13C11.0128 13 11.013 13 11.0132 13C11.0135 13 11.0137 13 11.0139 13C11.0142 13 11.0144 13 11.0146 13C11.0149 13 11.0151 13 11.0154 13C11.0156 13 11.0159 13 11.0161 13C11.0164 13 11.0166 13 11.0169 13C11.0171 13 11.0174 13 11.0177 13C11.0179 13 11.0182 13 11.0185 13C11.0188 13 11.019 13 11.0193 13C11.0196 13 11.0199 13 11.0202 13C11.0205 13 11.0208 13 11.0211 13C11.0214 13 11.0217 13 11.022 13C11.0223 13 11.0226 13 11.0229 13C11.0232 13 11.0235 13 11.0238 13C11.0241 13 11.0245 13 11.0248 13C11.0251 13 11.0254 13 11.0258 13C11.0261 13 11.0264 13 11.0268 13C11.0271 13 11.0275 13 11.0278 13C11.0282 13 11.0285 13 11.0289 13C11.0292 13 11.0296 13 11.0299 13C11.0303 13 11.0307 13 11.031 13C11.0314 13 11.0318 13 11.0322 13C11.0325 13 11.0329 13 11.0333 13C11.0337 13 11.0341 13 11.0345 13C11.0349 13 11.0353 13 11.0357 13C11.0361 13 11.0365 13 11.0369 13C11.0373 13 11.0377 13 11.0381 13C11.0386 13 11.039 13 11.0394 13C11.0398 13 11.0403 13 11.0407 13C11.0411 13 11.0416 13 11.042 13C11.0425 13 11.0429 13 11.0433 13C11.0438 13 11.0443 13 11.0447 13C11.0452 13 11.0456 13 11.0461 13C11.0466 13 11.047 13 11.0475 13C11.048 13 11.0485 13 11.049 13C11.0494 13 11.0499 13 11.0504 13C11.0509 13 11.0514 13 11.0519 13C11.0524 13 11.0529 13 11.0534 13C11.054 13 11.0545 13 11.055 13C11.0555 13 11.056 13 11.0566 13C11.0571 13 11.0576 13 11.0582 13C11.0587 13 11.0592 13 11.0598 13C11.0603 13 11.0609 13 11.0614 13C11.062 13 11.0625 13 11.0631 13C11.0637 13 11.0642 13 11.0648 13C11.0654 13 11.066 13 11.0665 13C11.0671 13 11.0677 13 11.0683 13C11.0689 13 11.0695 13 11.0701 13C11.0707 13 11.0713 13 11.0719 13C11.0725 13 11.0731 13 11.0738 13C11.0744 13 11.075 13 11.0756 13C11.0763 13 11.0769 13 11.0775 13C11.0782 13 11.0788 13 11.0795 13C11.0801 13 11.0808 13 11.0814 13C11.0821 13 11.0827 13 11.0834 13C11.0841 13 11.0847 13 11.0854 13C11.0861 13 11.0868 13 11.0875 13C11.0882 13 11.0888 13 11.0895 13C11.0902 13 11.0909 13 11.0917 13C11.0924 13 11.0931 13 11.0938 13C11.0945 13 11.0952 13 11.0959 13C11.0967 13 11.0974 13 11.0981 13C11.0989 13 11.0996 13 11.1004 13C11.1011 13 11.1019 13 11.1026 13C11.1034 13 11.1041 13 11.1049 13C11.1057 13 11.1065 13 11.1072 13C11.108 13 11.1088 13 11.1096 13C11.1104 13 11.1112 13 11.112 13C11.1128 13 11.1136 13 11.1144 13C11.1152 13 11.116 13 11.1168 13C11.1176 13 11.1185 13 11.1193 13C11.1201 13 11.1209 13 11.1218 13C11.1226 13 11.1235 13 11.1243 13C11.1252 13 11.126 13 11.1269 13C11.1278 13 11.1286 13 11.1295 13C11.1304 13 11.1313 13 11.1321 13C11.133 13 11.1339 13 11.1348 13C11.1357 13 11.1366 13 11.1375 13C11.1384 13 11.1393 13 11.1402 13C11.1412 13 11.1421 13 11.143 13C11.1439 13 11.1449 13 11.1458 13C11.1467 13 11.1477 13 11.1486 13C11.1496 13 11.1505 13 11.1515 13C11.1525 13 11.1534 13 11.1544 13C11.1554 13 11.1564 13 11.1573 13C11.1583 13 11.1593 13 11.1603 13C11.1613 13 11.1623 13 11.1633 13C11.1643 13 11.1653 13 11.1664 13C11.1674 13 11.1684 13 11.1694 13C11.1705 13 11.1715 13 11.1725 13C11.1736 13 11.1746 13 11.1757 13C11.1767 13 11.1778 13 11.1789 13C11.1799 13 11.181 13 11.1821 13C11.1832 13 11.1842 13 11.1853 13C11.1864 13 11.1875 13 11.1886 13C11.1897 13 11.1908 13 11.1919 13C11.193 13 11.1942 13 11.1953 13C11.1964 13 11.1976 13 11.1987 13C11.1998 13 11.201 13 11.2021 13C11.2033 13 11.2044 13 11.2056 13C11.2067 13 11.2079 13 11.2091 13C11.2103 13 11.2114 13 11.2126 13C11.2138 13 11.215 13 11.2162 13C11.2174 13 11.2186 13 11.2198 13C11.221 13 11.2223 13 11.2235 13C11.2247 13 11.2259 13 11.2272 13C11.2284 13 11.2297 13 11.2309 13C11.2322 13 11.2334 13 11.2347 13C11.2359 13 11.2372 13 11.2385 13C11.2398 13 11.241 13 11.2423 13C11.2436 13 11.2449 13 11.2462 13C11.2475 13 11.2488 13 11.2501 13C11.2514 13 11.2528 13 11.2541 13C11.2554 13 11.2567 13 11.2581 13C11.2594 13 11.2608 13 11.2621 13C11.2635 13 11.2648 13 11.2662 13C11.2676 13 11.2689 13 11.2703 13C11.2717 13 11.2731 13 11.2745 13C11.2759 13 11.2773 13 11.2787 13C11.2801 13 11.2815 13 11.2829 13C11.2843 13 11.2858 13 11.2872 13C11.2886 13 11.2901 13 11.2915 13C11.293 13 11.2944 13 11.2959 13C11.2973 13 11.2988 13 11.3003 13C11.3017 13 11.3032 13 11.3047 13C11.3062 13 11.3077 13 11.3092 13C11.3107 13 11.3122 13 11.3137 13C11.3152 13 11.3168 13 11.3183 13C11.3198 13 11.3213 13 11.3229 13C11.3244 13 11.326 13 11.3275 13C11.3291 13 11.3307 13 11.3322 13C11.3338 13 11.3354 13 11.337 13C11.3385 13 11.3401 13 11.3417 13C11.3433 13 11.3449 13 11.3466 13C11.3482 13 11.3498 13 11.3514 13C11.353 13 11.3547 13 11.3563 13C11.358 13 11.3596 13 11.3613 13C11.3629 13 11.3646 13 11.3663 13C11.3679 13 11.3696 13 11.3713 13C11.373 13 11.3747 13 11.3764 13C11.3781 13 11.3798 13 11.3815 13C11.3832 13 11.3849 13 11.3866 13C11.3884 13 11.3901 13 11.3919 13C11.3936 13 11.3953 13 11.3971 13C11.3989 13 11.4006 13 11.4024 13C11.4042 13 11.406 13 11.4077 13C11.4095 13 11.4113 13 11.4131 13C11.4149 13 11.4167 13 11.4186 13C11.4204 13 11.4222 13 11.424 13C11.4259 13 11.4277 13 11.4296 13C11.4314 13 11.4333 13 11.4351 13C11.437 13 11.4389 13 11.4407 13C11.4426 13 11.4445 13 11.4464 13C11.4483 13 11.4502 13 11.4521 13C11.454 13 11.4559 13 11.4579 13C11.4598 13 11.4617 13 11.4636 13C11.4656 13 11.4675 13 11.4695 13C11.4714 13 11.4734 13 11.4754 13C11.4774 13 11.4793 13 11.4813 13C11.4833 13 11.4853 13 11.4873 13C11.4893 13 11.4913 13 11.4933 13C11.4954 13 11.4974 13 11.4994 13C11.5014 13 11.5035 13 11.5055 13C11.5076 13 11.5096 13 11.5117 13C11.5138 13 11.5159 13 11.5179 13C11.52 13 11.5221 13 11.5242 13C11.5263 13 11.5284 13 11.5305 13C11.5326 13 11.5348 13 11.5369 13C11.539 13 11.5412 13 11.5433 13C11.5454 13 11.5476 13 11.5498 13C11.5519 13 11.5541 13 11.5563 13C11.5585 13 11.5606 13 11.5628 13C11.565 13 11.5672 13 11.5694 13C11.5717 13 11.5739 13 11.5761 13C11.5783 13 11.5806 13 11.5828 13C11.5851 13 11.5873 13 11.5896 13C11.5918 13 11.5941 13 11.5964 13C11.5987 13 11.601 13 11.6032 13C11.6055 13 11.6078 13 11.6102 13C11.6125 13 11.6148 13 11.6171 13C11.6194 13 11.6218 13 11.6241 13C11.6265 13 11.6288 13 11.6312 13C11.6336 13 11.6359 13 11.6383 13C11.6407 13 11.6431 13 11.6455 13C11.6479 13 11.6503 13 11.6527 13C11.6551 13 11.6575 13 11.6599 13C11.6624 13 11.6648 13 11.6673 13C11.6697 13 11.6722 13 11.6746 13C11.6771 13 11.6796 13 11.6821 13C11.6845 13 11.687 13 11.6895 13C11.692 13 11.6945 13 11.6971 13C11.6996 13 11.7021 13 11.7046 13C11.7072 13 11.7097 13 11.7123 13C11.7148 13 11.7174 13 11.72 13C11.7225 13 11.7251 13 11.7277 13C11.7303 13 11.7329 13 11.7355 13C11.7381 13 11.7407 13 11.7433 13C11.7459 13 11.7486 13 11.7512 13C11.7539 13 11.7565 13 11.7592 13C11.7618 13 11.7645 13 11.7672 13C11.7699 13 11.7725 13 11.7752 13C11.7779 13 11.7806 13 11.7834 13C11.7861 13 11.7888 13 11.7915 13C11.7943 13 11.797 13 11.7997 13C11.8025 13 11.8053 13 11.808 13C11.8108 13 11.8136 13 11.8164 13C11.8191 13 11.8219 13 11.8247 13C11.8275 13 11.8304 13 11.8332 13C11.836 13 11.8388 13 11.8417 13C11.8445 13 11.8474 13 11.8502 13C11.8531 13 11.856 13 11.8588 13C11.8617 13 11.8646 13 11.8675 13C11.8704 13 11.8733 13 11.8762 13C11.8791 13 11.8821 13 11.885 13C11.8879 13 11.8909 13 11.8938 13C11.8968 13 11.8998 13 11.9027 13C11.9057 13 11.9087 13 11.9117 13C11.9147 13 11.9177 13 11.9207 13C11.9237 13 11.9267 13 11.9298 13C11.9328 13 11.9358 13 11.9389 13C11.9419 13 11.945 13 11.948 13C11.9511 13 11.9542 13 11.9573 13C11.9604 13 11.9635 13 11.9666 13C11.9697 13 11.9728 13 11.9759 13C11.9791 13 11.9822 13 11.9853 13C11.9885 13 11.9916 13 11.9948 13C11.998 13 12.0011 13 12.0043 13C12.0075 13 12.0107 13 12.0139 13C12.0171 13 12.0203 13 12.0236 13C12.0268 13 12.03 13 12.0333 13C12.0365 13 12.0398 13 12.043 13C12.0463 13 12.0496 13 12.0528 13C12.0561 13 12.0594 13 12.0627 13C12.066 13 12.0693 13 12.0727 13C12.076 13 12.0793 13 12.0827 13C12.086 13 12.0894 13 12.0927 13C12.0961 13 12.0995 13 12.1028 13C12.1062 13 12.1096 13 12.113 13C12.1164 13 12.1198 13 12.1233 13C12.1267 13 12.1301 13 12.1336 13C12.137 13 12.1405 13 12.1439 13C12.1474 13 12.1509 13 12.1543 13C12.1578 13 12.1613 13 12.1648 13C12.1683 13 12.1719 13 12.1754 13C12.1789 13 12.1824 13 12.186 13C12.1895 13 12.1931 13 12.1967 13C12.2002 13 12.2038 13 12.2074 13C12.211 13 12.2146 13 12.2182 13C12.2218 13 12.2254 13 12.229 13C12.2327 13 12.2363 13 12.24 13C12.2436 13 12.2473 13 12.2509 13C12.2546 13 12.2583 13 12.262 13C12.2657 13 12.2694 13 12.2731 13C12.2768 13 12.2805 13 12.2843 13C12.288 13 12.2917 13 12.2955 13C12.2993 13 12.303 13 12.3068 13C12.3106 13 12.3144 13 12.3182 13C12.322 13 12.3258 13 12.3296 13C12.3334 13 12.3372 13 12.3411 13C12.3449 13 12.3488 13 12.3526 13C12.3565 13 12.3604 13 12.3642 13C12.3681 13 12.372 13 12.3759 13C12.3798 13 12.3838 13 12.3877 13C12.3916 13 12.3955 13 12.3995 13C12.4034 13 12.4074 13 12.4114 13C12.4153 13 12.4193 13 12.4233 13C12.4273 13 12.4313 13 12.4353 13C12.4393 13 12.4434 13 12.4474 13C12.4514 13 12.4555 13 12.4595 13C12.4636 13 12.4677 13 12.4717 13C12.4758 13 12.4799 13 12.484 13C12.4881 13 12.4922 13 12.4963 13C12.5005 13 12.5046 13 12.5088 13C12.5129 13 12.5171 13 12.5212 13C12.5254 13 12.5296 13 12.5338 13C12.538 13 12.5422 13 12.5464 13C12.5506 13 12.5548 13 12.559 13C12.5633 13 12.5675 13 12.5718 13C12.576 13 12.5803 13 12.5846 13C12.5889 13 12.5932 13 12.5975 13C12.6018 13 12.6061 13 12.6104 13C12.6147 13 12.6191 13 12.6234 13C12.6278 13 12.6321 13 12.6365 13C12.6409 13 12.6452 13 12.6496 13C12.654 13 12.6584 13 12.6628 13C12.6673 13 12.6717 13 12.6761 13C12.6806 13 12.685 13 12.6895 13C12.6939 13 12.6984 13 12.7029 13C12.7074 13 12.7119 13 12.7164 13C12.7209 13 12.7254 13 12.73 13C12.7345 13 12.739 13 12.7436 13C12.7481 13 12.7527 13 12.7573 13C12.7619 13 12.7665 13 12.7711 13C12.7757 13 12.7803 13 12.7849 13C12.7895 13 12.7942 13 12.7988 13C12.8035 13 12.8081 13 12.8128 13C12.8175 13 12.8221 13 12.8268 13C12.8315 13 12.8362 13 12.841 13C12.8457 13 12.8504 13 12.8552 13C12.8599 13 12.8646 13 12.8694 13C12.8742 13 12.879 13 12.8838 13C12.8885 13 12.8933 13 12.8982 13C12.903 13 12.9078 13 12.9126 13C12.9175 13 12.9223 13 12.9272 13C12.932 13 12.9369 13 12.9418 13C12.9467 13 12.9516 13 12.9565 13C12.9614 13 12.9663 13 12.9713 13C12.9762 13 12.9811 13 12.9861 13C12.9911 13 12.996 13 13.001 13C13.006 13 13.011 13 13.016 13C13.021 13 13.026 13 13.0311 13C13.0361 13 13.0411 13 13.0462 13C13.0512 13 13.0563 13 13.0614 13C13.0665 13 13.0716 13 13.0767 13C13.0818 13 13.0869 13 13.092 13C13.0971 13 13.1023 13 13.1074 13C13.1126 13 13.1178 13 13.1229 13C13.1281 13 13.1333 13 13.1385 13C13.1437 13 13.1489 13 13.1542 13C13.1594 13 13.1646 13 13.1699 13C13.1751 13 13.1804 13 13.1857 13C13.191 13 13.1962 13 13.2016 13C13.2069 13 13.2122 13 13.2175 13C13.2228 13 13.2282 13 13.2335 13C13.2389 13 13.2442 13 13.2496 13C13.255 13 13.2604 13 13.2658 13C13.2712 13 13.2766 13 13.282 13C13.2875 13 13.2929 13 13.2984 13C13.3038 13 13.3093 13 13.3148 13C13.3202 13 13.3257 13 13.3312 13C13.3367 13 13.3423 13 13.3478 13C13.3533 13 13.3589 13 13.3644 13C13.37 13 13.3755 13 13.3811 13C13.3867 13 13.3923 13 13.3979 13C13.4035 13 13.4091 13 13.4148 13C13.4204 13 13.426 13 13.4317 13C13.4374 13 13.443 13 13.4487 13C13.4544 13 13.4601 13 13.4658 13C13.4715 13 13.4772 13 13.483 13C13.4887 13 13.4945 13 13.5002 13C13.506 13 13.5118 13 13.5176 13C13.5234 13 13.5292 13 13.535 13C13.5408 13 13.5466 13 13.5524 13C13.5583 13 13.5641 13 13.57 13C13.5759 13 13.5818 13 13.5877 13C13.5935 13 13.5995 13 13.6054 13C13.6113 13 13.6172 13 13.6232 13C13.6291 13 13.6351 13 13.6411 13C13.647 13 13.653 13 13.659 13C13.665 13 13.671 13 13.677 13C13.6831 13 13.6891 13 13.6952 13C13.7012 13 13.7073 13 13.7134 13C13.7194 13 13.7255 13 13.7316 13C13.7377 13 13.7439 13 13.75 13C13.7561 13 13.7623 13 13.7684 13C13.7746 13 13.7808 13 13.787 13C13.7931 13 13.7993 13 13.8056 13C13.8118 13 13.818 13 13.8242 13C13.8305 13 13.8367 13 13.843 13C13.8493 13 13.8556 13 13.8618 13C13.8681 13 13.8745 13 13.8808 13C13.8871 13 13.8934 13 13.8998 13C13.9061 13 13.9125 13 13.9189 13C13.9252 13 13.9316 13 13.938 13C13.9444 13 13.9509 13 13.9573 13C13.9637 13 13.9702 13 13.9766 13C13.9831 13 13.9896 13 13.9961 13C14.0025 13 14.009 13 14.0156 13C14.0221 13 14.0286 13 14.0351 13C14.0417 13 14.0482 13 14.0548 13C14.0614 13 14.068 13 14.0746 13C14.0812 13 14.0878 13 14.0944 13C14.101 13 14.1077 13 14.1143 13C14.121 13 14.1276 13 14.1343 13C14.141 13 14.1477 13 14.1544 13C14.1611 13 14.1678 13 14.1746 13C14.1813 13 14.1881 13 14.1948 13C14.2016 13 14.2084 13 14.2152 13C14.222 13 14.2288 13 14.2356 13C14.2424 13 14.2493 13 14.2561 13C14.263 13 14.2698 13 14.2767 13C14.2836 13 14.2905 13 14.2974 13C14.3043 13 14.3112 13 14.3181 13C14.3251 13 14.332 13 14.339 13C14.346 13 14.3529 13 14.3599 13C14.3669 13 14.3739 13 14.3809 13C14.388 13 14.395 13 14.4021 13C14.4091 13 14.4162 13 14.4232 13C14.4303 13 14.4374 13 14.4445 13C14.4516 13 14.4588 13 14.4659 13C14.473 13 14.4802 13 14.4874 13C14.4945 13 14.5017 13 14.5089 13C14.5161 13 14.5233 13 14.5305 13C14.5377 13 14.545 13 14.5522 13C14.5595 13 14.5668 13 14.574 13C14.5813 13 14.5886 13 14.5959 13C14.6032 13 14.6106 13 14.6179 13C14.6252 13 14.6326 13 14.64 13C14.6473 13 14.6547 13 14.6621 13C14.6695 13 14.6769 13 14.6844 13C14.6918 13 14.6992 13 14.7067 13C14.7142 13 14.7216 13 14.7291 13C14.7366 13 14.7441 13 14.7516 13C14.7591 13 14.7667 13 14.7742 13C14.7818 13 14.7893 13 14.7969 13C14.8045 13 14.8121 13 14.8197 13C14.8273 13 14.8349 13 14.8426 13C14.8502 13 14.8578 13 14.8655 13C14.8732 13 14.8809 13 14.8886 13C14.8962 13 14.904 13 14.9117 13C14.9194 13 14.9272 13 14.9349 13C14.9427 13 14.9504 13 14.9582 13C14.966 13 14.9738 13 14.9816 13C14.9895 13 14.9973 13 15.0051 13C15.013 13 15.0208 13 15.0287 13C15.0366 13 15.0445 13 15.0524 13C15.0603 13 15.0682 13 15.0762 13C15.0841 13 15.0921 13 15.1 13C15.108 13 15.116 13 15.124 13C15.132 13 15.14 13 15.148 13C15.1561 13 15.1641 13 15.1722 13C15.1802 13 15.1883 13 15.1964 13C15.2045 13 15.2126 13 15.2207 13C15.2288 13 15.237 13 15.2451 13C15.2533 13 15.2614 13 15.2696 13C15.2778 13 15.286 13 15.2942 13C15.3024 13 15.3107 13 15.3189 13C15.3272 13 15.3354 13 15.3437 13C15.352 13 15.3603 13 15.3686 13C15.3769 13 15.3852 13 15.3936 13C15.4019 13 15.4103 13 15.4186 13C15.427 13 15.4354 13 15.4438 13C15.4522 13 15.4606 13 15.469 13C15.4775 13 15.4859 13 15.4944 13C15.5028 13 15.5113 13 15.5198 13C15.5283 13 15.5368 13 15.5454 13C15.5539 13 15.5624 13 15.571 13C15.5796 13 15.5881 13 15.5967 13C15.6053 13 15.6139 13 15.6225 13C15.6312 13 15.6398 13 15.6485 13C15.6571 13 15.6658 13 15.6745 13C15.6832 13 15.6919 13 15.7006 13C15.7093 13 15.718 13 15.7268 13C15.7355 13 15.7443 13 15.7531 13C15.7619 13 15.7707 13 15.7795 13C15.7883 13 15.7971 13 15.806 13C15.8148 13 15.8237 13 15.8325 13C15.8414 13 15.8503 13 15.8592 13C15.8681 13 15.8771 13 15.886 13C15.895 13 15.9039 13 15.9129 13C15.9219 13 15.9309 13 15.9399 13C15.9489 13 15.9579 13 15.9669 13C15.976 13 15.985 13 15.9941 13C16.0032 13 16.0123 13 16.0214 13C16.0305 13 16.0396 13 16.0487 13C16.0579 13 16.067 13 16.0762 13C16.0854 13 16.0946 13 16.1038 13C16.113 13 16.1222 13 16.1314 13C16.1407 13 16.1499 13 16.1592 13C16.1684 13 16.1777 13 16.187 13C16.1963 13 16.2056 13 16.215 13C16.2243 13 16.2337 13 16.243 13C16.2524 13 16.2618 13 16.2712 13C16.2806 13 16.29 13 16.2994 13C16.3089 13 16.3183 13 16.3278 13C16.3373 13 16.3467 13 16.3562 13C16.3657 13 16.3753 13 16.3848 13C16.3943 13 16.4039 13 16.4134 13C16.423 13 16.4326 13 16.4422 13C16.4518 13 16.4614 13 16.471 13C16.4807 13 16.4903 13 16.5 13V11C16.4903 11 16.4807 11 16.471 11C16.4614 11 16.4518 11 16.4422 11C16.4326 11 16.423 11 16.4134 11C16.4039 11 16.3943 11 16.3848 11C16.3753 11 16.3657 11 16.3562 11C16.3467 11 16.3373 11 16.3278 11C16.3183 11 16.3089 11 16.2994 11C16.29 11 16.2806 11 16.2712 11C16.2618 11 16.2524 11 16.243 11C16.2337 11 16.2243 11 16.215 11C16.2056 11 16.1963 11 16.187 11C16.1777 11 16.1684 11 16.1592 11C16.1499 11 16.1407 11 16.1314 11C16.1222 11 16.113 11 16.1038 11C16.0946 11 16.0854 11 16.0762 11C16.067 11 16.0579 11 16.0487 11C16.0396 11 16.0305 11 16.0214 11C16.0123 11 16.0032 11 15.9941 11C15.985 11 15.976 11 15.9669 11C15.9579 11 15.9489 11 15.9399 11C15.9309 11 15.9219 11 15.9129 11C15.9039 11 15.895 11 15.886 11C15.8771 11 15.8681 11 15.8592 11C15.8503 11 15.8414 11 15.8325 11C15.8237 11 15.8148 11 15.806 11C15.7971 11 15.7883 11 15.7795 11C15.7707 11 15.7619 11 15.7531 11C15.7443 11 15.7355 11 15.7268 11C15.718 11 15.7093 11 15.7006 11C15.6919 11 15.6832 11 15.6745 11C15.6658 11 15.6571 11 15.6485 11C15.6398 11 15.6312 11 15.6225 11C15.6139 11 15.6053 11 15.5967 11C15.5881 11 15.5796 11 15.571 11C15.5624 11 15.5539 11 15.5454 11C15.5368 11 15.5283 11 15.5198 11C15.5113 11 15.5028 11 15.4944 11C15.4859 11 15.4775 11 15.469 11C15.4606 11 15.4522 11 15.4438 11C15.4354 11 15.427 11 15.4186 11C15.4103 11 15.4019 11 15.3936 11C15.3852 11 15.3769 11 15.3686 11C15.3603 11 15.352 11 15.3437 11C15.3354 11 15.3272 11 15.3189 11C15.3107 11 15.3024 11 15.2942 11C15.286 11 15.2778 11 15.2696 11C15.2614 11 15.2533 11 15.2451 11C15.237 11 15.2288 11 15.2207 11C15.2126 11 15.2045 11 15.1964 11C15.1883 11 15.1802 11 15.1722 11C15.1641 11 15.1561 11 15.148 11C15.14 11 15.132 11 15.124 11C15.116 11 15.108 11 15.1 11C15.0921 11 15.0841 11 15.0762 11C15.0682 11 15.0603 11 15.0524 11C15.0445 11 15.0366 11 15.0287 11C15.0208 11 15.013 11 15.0051 11C14.9973 11 14.9895 11 14.9816 11C14.9738 11 14.966 11 14.9582 11C14.9504 11 14.9427 11 14.9349 11C14.9272 11 14.9194 11 14.9117 11C14.904 11 14.8962 11 14.8886 11C14.8809 11 14.8732 11 14.8655 11C14.8578 11 14.8502 11 14.8426 11C14.8349 11 14.8273 11 14.8197 11C14.8121 11 14.8045 11 14.7969 11C14.7893 11 14.7818 11 14.7742 11C14.7667 11 14.7591 11 14.7516 11C14.7441 11 14.7366 11 14.7291 11C14.7216 11 14.7142 11 14.7067 11C14.6992 11 14.6918 11 14.6844 11C14.6769 11 14.6695 11 14.6621 11C14.6547 11 14.6473 11 14.64 11C14.6326 11 14.6252 11 14.6179 11C14.6106 11 14.6032 11 14.5959 11C14.5886 11 14.5813 11 14.574 11C14.5668 11 14.5595 11 14.5522 11C14.545 11 14.5377 11 14.5305 11C14.5233 11 14.5161 11 14.5089 11C14.5017 11 14.4945 11 14.4874 11C14.4802 11 14.473 11 14.4659 11C14.4588 11 14.4516 11 14.4445 11C14.4374 11 14.4303 11 14.4232 11C14.4162 11 14.4091 11 14.4021 11C14.395 11 14.388 11 14.3809 11C14.3739 11 14.3669 11 14.3599 11C14.3529 11 14.346 11 14.339 11C14.332 11 14.3251 11 14.3181 11C14.3112 11 14.3043 11 14.2974 11C14.2905 11 14.2836 11 14.2767 11C14.2698 11 14.263 11 14.2561 11C14.2493 11 14.2424 11 14.2356 11C14.2288 11 14.222 11 14.2152 11C14.2084 11 14.2016 11 14.1948 11C14.1881 11 14.1813 11 14.1746 11C14.1678 11 14.1611 11 14.1544 11C14.1477 11 14.141 11 14.1343 11C14.1276 11 14.121 11 14.1143 11C14.1077 11 14.101 11 14.0944 11C14.0878 11 14.0812 11 14.0746 11C14.068 11 14.0614 11 14.0548 11C14.0482 11 14.0417 11 14.0351 11C14.0286 11 14.0221 11 14.0156 11C14.009 11 14.0025 11 13.9961 11C13.9896 11 13.9831 11 13.9766 11C13.9702 11 13.9637 11 13.9573 11C13.9509 11 13.9444 11 13.938 11C13.9316 11 13.9252 11 13.9189 11C13.9125 11 13.9061 11 13.8998 11C13.8934 11 13.8871 11 13.8808 11C13.8745 11 13.8681 11 13.8618 11C13.8556 11 13.8493 11 13.843 11C13.8367 11 13.8305 11 13.8242 11C13.818 11 13.8118 11 13.8056 11C13.7993 11 13.7931 11 13.787 11C13.7808 11 13.7746 11 13.7684 11C13.7623 11 13.7561 11 13.75 11C13.7439 11 13.7377 11 13.7316 11C13.7255 11 13.7194 11 13.7134 11C13.7073 11 13.7012 11 13.6952 11C13.6891 11 13.6831 11 13.677 11C13.671 11 13.665 11 13.659 11C13.653 11 13.647 11 13.6411 11C13.6351 11 13.6291 11 13.6232 11C13.6172 11 13.6113 11 13.6054 11C13.5995 11 13.5935 11 13.5877 11C13.5818 11 13.5759 11 13.57 11C13.5641 11 13.5583 11 13.5524 11C13.5466 11 13.5408 11 13.535 11C13.5292 11 13.5234 11 13.5176 11C13.5118 11 13.506 11 13.5002 11C13.4945 11 13.4887 11 13.483 11C13.4772 11 13.4715 11 13.4658 11C13.4601 11 13.4544 11 13.4487 11C13.443 11 13.4374 11 13.4317 11C13.426 11 13.4204 11 13.4148 11C13.4091 11 13.4035 11 13.3979 11C13.3923 11 13.3867 11 13.3811 11C13.3755 11 13.37 11 13.3644 11C13.3589 11 13.3533 11 13.3478 11C13.3423 11 13.3367 11 13.3312 11C13.3257 11 13.3202 11 13.3148 11C13.3093 11 13.3038 11 13.2984 11C13.2929 11 13.2875 11 13.282 11C13.2766 11 13.2712 11 13.2658 11C13.2604 11 13.255 11 13.2496 11C13.2442 11 13.2389 11 13.2335 11C13.2282 11 13.2228 11 13.2175 11C13.2122 11 13.2069 11 13.2016 11C13.1962 11 13.191 11 13.1857 11C13.1804 11 13.1751 11 13.1699 11C13.1646 11 13.1594 11 13.1542 11C13.1489 11 13.1437 11 13.1385 11C13.1333 11 13.1281 11 13.1229 11C13.1178 11 13.1126 11 13.1074 11C13.1023 11 13.0971 11 13.092 11C13.0869 11 13.0818 11 13.0767 11C13.0716 11 13.0665 11 13.0614 11C13.0563 11 13.0512 11 13.0462 11C13.0411 11 13.0361 11 13.0311 11C13.026 11 13.021 11 13.016 11C13.011 11 13.006 11 13.001 11C12.996 11 12.9911 11 12.9861 11C12.9811 11 12.9762 11 12.9713 11C12.9663 11 12.9614 11 12.9565 11C12.9516 11 12.9467 11 12.9418 11C12.9369 11 12.932 11 12.9272 11C12.9223 11 12.9175 11 12.9126 11C12.9078 11 12.903 11 12.8982 11C12.8933 11 12.8885 11 12.8838 11C12.879 11 12.8742 11 12.8694 11C12.8646 11 12.8599 11 12.8552 11C12.8504 11 12.8457 11 12.841 11C12.8362 11 12.8315 11 12.8268 11C12.8221 11 12.8175 11 12.8128 11C12.8081 11 12.8035 11 12.7988 11C12.7942 11 12.7895 11 12.7849 11C12.7803 11 12.7757 11 12.7711 11C12.7665 11 12.7619 11 12.7573 11C12.7527 11 12.7481 11 12.7436 11C12.739 11 12.7345 11 12.73 11C12.7254 11 12.7209 11 12.7164 11C12.7119 11 12.7074 11 12.7029 11C12.6984 11 12.6939 11 12.6895 11C12.685 11 12.6806 11 12.6761 11C12.6717 11 12.6673 11 12.6628 11C12.6584 11 12.654 11 12.6496 11C12.6452 11 12.6409 11 12.6365 11C12.6321 11 12.6278 11 12.6234 11C12.6191 11 12.6147 11 12.6104 11C12.6061 11 12.6018 11 12.5975 11C12.5932 11 12.5889 11 12.5846 11C12.5803 11 12.576 11 12.5718 11C12.5675 11 12.5633 11 12.559 11C12.5548 11 12.5506 11 12.5464 11C12.5422 11 12.538 11 12.5338 11C12.5296 11 12.5254 11 12.5212 11C12.5171 11 12.5129 11 12.5088 11C12.5046 11 12.5005 11 12.4963 11C12.4922 11 12.4881 11 12.484 11C12.4799 11 12.4758 11 12.4717 11C12.4677 11 12.4636 11 12.4595 11C12.4555 11 12.4514 11 12.4474 11C12.4434 11 12.4393 11 12.4353 11C12.4313 11 12.4273 11 12.4233 11C12.4193 11 12.4153 11 12.4114 11C12.4074 11 12.4034 11 12.3995 11C12.3955 11 12.3916 11 12.3877 11C12.3838 11 12.3798 11 12.3759 11C12.372 11 12.3681 11 12.3642 11C12.3604 11 12.3565 11 12.3526 11C12.3488 11 12.3449 11 12.3411 11C12.3372 11 12.3334 11 12.3296 11C12.3258 11 12.322 11 12.3182 11C12.3144 11 12.3106 11 12.3068 11C12.303 11 12.2993 11 12.2955 11C12.2917 11 12.288 11 12.2843 11C12.2805 11 12.2768 11 12.2731 11C12.2694 11 12.2657 11 12.262 11C12.2583 11 12.2546 11 12.2509 11C12.2473 11 12.2436 11 12.24 11C12.2363 11 12.2327 11 12.229 11C12.2254 11 12.2218 11 12.2182 11C12.2146 11 12.211 11 12.2074 11C12.2038 11 12.2002 11 12.1967 11C12.1931 11 12.1895 11 12.186 11C12.1824 11 12.1789 11 12.1754 11C12.1719 11 12.1683 11 12.1648 11C12.1613 11 12.1578 11 12.1543 11C12.1509 11 12.1474 11 12.1439 11C12.1405 11 12.137 11 12.1336 11C12.1301 11 12.1267 11 12.1233 11C12.1198 11 12.1164 11 12.113 11C12.1096 11 12.1062 11 12.1028 11C12.0995 11 12.0961 11 12.0927 11C12.0894 11 12.086 11 12.0827 11C12.0793 11 12.076 11 12.0727 11C12.0693 11 12.066 11 12.0627 11C12.0594 11 12.0561 11 12.0528 11C12.0496 11 12.0463 11 12.043 11C12.0398 11 12.0365 11 12.0333 11C12.03 11 12.0268 11 12.0236 11C12.0203 11 12.0171 11 12.0139 11C12.0107 11 12.0075 11 12.0043 11C12.0011 11 11.998 11 11.9948 11C11.9916 11 11.9885 11 11.9853 11C11.9822 11 11.9791 11 11.9759 11C11.9728 11 11.9697 11 11.9666 11C11.9635 11 11.9604 11 11.9573 11C11.9542 11 11.9511 11 11.948 11C11.945 11 11.9419 11 11.9389 11C11.9358 11 11.9328 11 11.9298 11C11.9267 11 11.9237 11 11.9207 11C11.9177 11 11.9147 11 11.9117 11C11.9087 11 11.9057 11 11.9027 11C11.8998 11 11.8968 11 11.8938 11C11.8909 11 11.8879 11 11.885 11C11.8821 11 11.8791 11 11.8762 11C11.8733 11 11.8704 11 11.8675 11C11.8646 11 11.8617 11 11.8588 11C11.856 11 11.8531 11 11.8502 11C11.8474 11 11.8445 11 11.8417 11C11.8388 11 11.836 11 11.8332 11C11.8304 11 11.8275 11 11.8247 11C11.8219 11 11.8191 11 11.8164 11C11.8136 11 11.8108 11 11.808 11C11.8053 11 11.8025 11 11.7997 11C11.797 11 11.7943 11 11.7915 11C11.7888 11 11.7861 11 11.7834 11C11.7806 11 11.7779 11 11.7752 11C11.7725 11 11.7699 11 11.7672 11C11.7645 11 11.7618 11 11.7592 11C11.7565 11 11.7539 11 11.7512 11C11.7486 11 11.7459 11 11.7433 11C11.7407 11 11.7381 11 11.7355 11C11.7329 11 11.7303 11 11.7277 11C11.7251 11 11.7225 11 11.72 11C11.7174 11 11.7148 11 11.7123 11C11.7097 11 11.7072 11 11.7046 11C11.7021 11 11.6996 11 11.6971 11C11.6945 11 11.692 11 11.6895 11C11.687 11 11.6845 11 11.6821 11C11.6796 11 11.6771 11 11.6746 11C11.6722 11 11.6697 11 11.6673 11C11.6648 11 11.6624 11 11.6599 11C11.6575 11 11.6551 11 11.6527 11C11.6503 11 11.6479 11 11.6455 11C11.6431 11 11.6407 11 11.6383 11C11.6359 11 11.6336 11 11.6312 11C11.6288 11 11.6265 11 11.6241 11C11.6218 11 11.6194 11 11.6171 11C11.6148 11 11.6125 11 11.6102 11C11.6078 11 11.6055 11 11.6032 11C11.601 11 11.5987 11 11.5964 11C11.5941 11 11.5918 11 11.5896 11C11.5873 11 11.5851 11 11.5828 11C11.5806 11 11.5783 11 11.5761 11C11.5739 11 11.5717 11 11.5694 11C11.5672 11 11.565 11 11.5628 11C11.5606 11 11.5585 11 11.5563 11C11.5541 11 11.5519 11 11.5498 11C11.5476 11 11.5454 11 11.5433 11C11.5412 11 11.539 11 11.5369 11C11.5348 11 11.5326 11 11.5305 11C11.5284 11 11.5263 11 11.5242 11C11.5221 11 11.52 11 11.5179 11C11.5159 11 11.5138 11 11.5117 11C11.5096 11 11.5076 11 11.5055 11C11.5035 11 11.5014 11 11.4994 11C11.4974 11 11.4954 11 11.4933 11C11.4913 11 11.4893 11 11.4873 11C11.4853 11 11.4833 11 11.4813 11C11.4793 11 11.4774 11 11.4754 11C11.4734 11 11.4714 11 11.4695 11C11.4675 11 11.4656 11 11.4636 11C11.4617 11 11.4598 11 11.4579 11C11.4559 11 11.454 11 11.4521 11C11.4502 11 11.4483 11 11.4464 11C11.4445 11 11.4426 11 11.4407 11C11.4389 11 11.437 11 11.4351 11C11.4333 11 11.4314 11 11.4296 11C11.4277 11 11.4259 11 11.424 11C11.4222 11 11.4204 11 11.4186 11C11.4167 11 11.4149 11 11.4131 11C11.4113 11 11.4095 11 11.4077 11C11.406 11 11.4042 11 11.4024 11C11.4006 11 11.3989 11 11.3971 11C11.3953 11 11.3936 11 11.3919 11C11.3901 11 11.3884 11 11.3866 11C11.3849 11 11.3832 11 11.3815 11C11.3798 11 11.3781 11 11.3764 11C11.3747 11 11.373 11 11.3713 11C11.3696 11 11.3679 11 11.3663 11C11.3646 11 11.3629 11 11.3613 11C11.3596 11 11.358 11 11.3563 11C11.3547 11 11.353 11 11.3514 11C11.3498 11 11.3482 11 11.3466 11C11.3449 11 11.3433 11 11.3417 11C11.3401 11 11.3385 11 11.337 11C11.3354 11 11.3338 11 11.3322 11C11.3307 11 11.3291 11 11.3275 11C11.326 11 11.3244 11 11.3229 11C11.3213 11 11.3198 11 11.3183 11C11.3168 11 11.3152 11 11.3137 11C11.3122 11 11.3107 11 11.3092 11C11.3077 11 11.3062 11 11.3047 11C11.3032 11 11.3017 11 11.3003 11C11.2988 11 11.2973 11 11.2959 11C11.2944 11 11.293 11 11.2915 11C11.2901 11 11.2886 11 11.2872 11C11.2858 11 11.2843 11 11.2829 11C11.2815 11 11.2801 11 11.2787 11C11.2773 11 11.2759 11 11.2745 11C11.2731 11 11.2717 11 11.2703 11C11.2689 11 11.2676 11 11.2662 11C11.2648 11 11.2635 11 11.2621 11C11.2608 11 11.2594 11 11.2581 11C11.2567 11 11.2554 11 11.2541 11C11.2528 11 11.2514 11 11.2501 11C11.2488 11 11.2475 11 11.2462 11C11.2449 11 11.2436 11 11.2423 11C11.241 11 11.2398 11 11.2385 11C11.2372 11 11.2359 11 11.2347 11C11.2334 11 11.2322 11 11.2309 11C11.2297 11 11.2284 11 11.2272 11C11.2259 11 11.2247 11 11.2235 11C11.2223 11 11.221 11 11.2198 11C11.2186 11 11.2174 11 11.2162 11C11.215 11 11.2138 11 11.2126 11C11.2114 11 11.2103 11 11.2091 11C11.2079 11 11.2067 11 11.2056 11C11.2044 11 11.2033 11 11.2021 11C11.201 11 11.1998 11 11.1987 11C11.1976 11 11.1964 11 11.1953 11C11.1942 11 11.193 11 11.1919 11C11.1908 11 11.1897 11 11.1886 11C11.1875 11 11.1864 11 11.1853 11C11.1842 11 11.1832 11 11.1821 11C11.181 11 11.1799 11 11.1789 11C11.1778 11 11.1767 11 11.1757 11C11.1746 11 11.1736 11 11.1725 11C11.1715 11 11.1705 11 11.1694 11C11.1684 11 11.1674 11 11.1664 11C11.1653 11 11.1643 11 11.1633 11C11.1623 11 11.1613 11 11.1603 11C11.1593 11 11.1583 11 11.1573 11C11.1564 11 11.1554 11 11.1544 11C11.1534 11 11.1525 11 11.1515 11C11.1505 11 11.1496 11 11.1486 11C11.1477 11 11.1467 11 11.1458 11C11.1449 11 11.1439 11 11.143 11C11.1421 11 11.1412 11 11.1402 11C11.1393 11 11.1384 11 11.1375 11C11.1366 11 11.1357 11 11.1348 11C11.1339 11 11.133 11 11.1321 11C11.1313 11 11.1304 11 11.1295 11C11.1286 11 11.1278 11 11.1269 11C11.126 11 11.1252 11 11.1243 11C11.1235 11 11.1226 11 11.1218 11C11.1209 11 11.1201 11 11.1193 11C11.1185 11 11.1176 11 11.1168 11C11.116 11 11.1152 11 11.1144 11C11.1136 11 11.1128 11 11.112 11C11.1112 11 11.1104 11 11.1096 11C11.1088 11 11.108 11 11.1072 11C11.1065 11 11.1057 11 11.1049 11C11.1041 11 11.1034 11 11.1026 11C11.1019 11 11.1011 11 11.1004 11C11.0996 11 11.0989 11 11.0981 11C11.0974 11 11.0967 11 11.0959 11C11.0952 11 11.0945 11 11.0938 11C11.0931 11 11.0924 11 11.0917 11C11.0909 11 11.0902 11 11.0895 11C11.0888 11 11.0882 11 11.0875 11C11.0868 11 11.0861 11 11.0854 11C11.0847 11 11.0841 11 11.0834 11C11.0827 11 11.0821 11 11.0814 11C11.0808 11 11.0801 11 11.0795 11C11.0788 11 11.0782 11 11.0775 11C11.0769 11 11.0763 11 11.0756 11C11.075 11 11.0744 11 11.0738 11C11.0731 11 11.0725 11 11.0719 11C11.0713 11 11.0707 11 11.0701 11C11.0695 11 11.0689 11 11.0683 11C11.0677 11 11.0671 11 11.0665 11C11.066 11 11.0654 11 11.0648 11C11.0642 11 11.0637 11 11.0631 11C11.0625 11 11.062 11 11.0614 11C11.0609 11 11.0603 11 11.0598 11C11.0592 11 11.0587 11 11.0582 11C11.0576 11 11.0571 11 11.0566 11C11.056 11 11.0555 11 11.055 11C11.0545 11 11.054 11 11.0534 11C11.0529 11 11.0524 11 11.0519 11C11.0514 11 11.0509 11 11.0504 11C11.0499 11 11.0494 11 11.049 11C11.0485 11 11.048 11 11.0475 11C11.047 11 11.0466 11 11.0461 11C11.0456 11 11.0452 11 11.0447 11C11.0443 11 11.0438 11 11.0433 11C11.0429 11 11.0425 11 11.042 11C11.0416 11 11.0411 11 11.0407 11C11.0403 11 11.0398 11 11.0394 11C11.039 11 11.0386 11 11.0381 11C11.0377 11 11.0373 11 11.0369 11C11.0365 11 11.0361 11 11.0357 11C11.0353 11 11.0349 11 11.0345 11C11.0341 11 11.0337 11 11.0333 11C11.0329 11 11.0325 11 11.0322 11C11.0318 11 11.0314 11 11.031 11C11.0307 11 11.0303 11 11.0299 11C11.0296 11 11.0292 11 11.0289 11C11.0285 11 11.0282 11 11.0278 11C11.0275 11 11.0271 11 11.0268 11C11.0264 11 11.0261 11 11.0258 11C11.0254 11 11.0251 11 11.0248 11C11.0245 11 11.0241 11 11.0238 11C11.0235 11 11.0232 11 11.0229 11C11.0226 11 11.0223 11 11.022 11C11.0217 11 11.0214 11 11.0211 11C11.0208 11 11.0205 11 11.0202 11C11.0199 11 11.0196 11 11.0193 11C11.019 11 11.0188 11 11.0185 11C11.0182 11 11.0179 11 11.0177 11C11.0174 11 11.0171 11 11.0169 11C11.0166 11 11.0164 11 11.0161 11C11.0159 11 11.0156 11 11.0154 11C11.0151 11 11.0149 11 11.0146 11C11.0144 11 11.0142 11 11.0139 11C11.0137 11 11.0135 11 11.0132 11C11.013 11 11.0128 11 11.0126 11C11.0123 11 11.0121 11 11.0119 11C11.0117 11 11.0115 11 11.0113 11C11.0111 11 11.0109 11 11.0107 11C11.0105 11 11.0103 11 11.0101 11C11.0099 11 11.0097 11 11.0095 11C11.0093 11 11.0091 11 11.0089 11C11.0088 11 11.0086 11 11.0084 11C11.0082 11 11.0081 11 11.0079 11C11.0077 11 11.0076 11 11.0074 11C11.0072 11 11.0071 11 11.0069 11C11.0067 11 11.0066 11 11.0064 11C11.0063 11 11.0061 11 11.006 11C11.0058 11 11.0057 11 11.0056 11C11.0054 11 11.0053 11 11.0052 11C11.005 11 11.0049 11 11.0048 11C11.0046 11 11.0045 11 11.0044 11C11.0043 11 11.0041 11 11.004 11C11.0039 11 11.0038 11 11.0037 11C11.0036 11 11.0035 11 11.0034 11C11.0032 11 11.0031 11 11.003 11C11.0029 11 11.0028 11 11.0027 11C11.0027 11 11.0026 11 11.0025 11C11.0024 11 11.0023 11 11.0022 11C11.0021 11 11.002 11 11.002 11C11.0019 11 11.0018 11 11.0017 11C11.0017 11 11.0016 11 11.0015 11C11.0014 11 11.0014 11 11.0013 11C11.0012 11 11.0012 11 11.0011 11C11.0011 11 11.001 11 11.001 11C11.0009 11 11.0008 11 11.0008 11C11.0008 11 11.0007 11 11.0007 11C11.0006 11 11.0006 11 11.0005 11C11.0005 11 11.0005 11 11.0004 11C11.0004 11 11.0003 11 11.0003 11C11.0003 11 11.0003 11 11.0002 11C11.0002 11 11.0002 11 11.0002 11C11.0001 11 11.0001 11 11.0001 11C11.0001 11 11.0001 11 11.0001 11C11 11 11 11 11 11C11 11 11 11 11 11C11 11 11 11 11 12ZM16.5 13C19.0407 13 21.2215 12.7435 22.7699 12.4865C23.5447 12.3579 24.163 12.2289 24.5907 12.1311C24.8047 12.0822 24.9712 12.0411 25.0859 12.0117C25.1433 11.997 25.1878 11.9852 25.2188 11.9769C25.2344 11.9727 25.2465 11.9694 25.2552 11.967C25.2596 11.9658 25.2631 11.9648 25.2658 11.964C25.2671 11.9637 25.2682 11.9634 25.2691 11.9631C25.2695 11.963 25.2699 11.9629 25.2703 11.9628C25.2704 11.9627 25.2707 11.9627 25.2707 11.9627C25.2709 11.9626 25.2711 11.9625 25 11C24.7289 10.0375 24.729 10.0374 24.7292 10.0374C24.7292 10.0374 24.7293 10.0373 24.7294 10.0373C24.7295 10.0373 24.7296 10.0373 24.7296 10.0373C24.7296 10.0372 24.7294 10.0373 24.729 10.0374C24.7282 10.0376 24.7266 10.0381 24.7241 10.0388C24.7191 10.0402 24.7107 10.0425 24.699 10.0456C24.6756 10.0519 24.639 10.0616 24.5896 10.0742C24.4909 10.0995 24.3413 10.1365 24.1451 10.1814C23.7526 10.2711 23.1739 10.3921 22.4424 10.5135C20.9783 10.7565 18.9091 11 16.5 11V13Z" fill="#1D1D1B"/>
</svg>
